<?xml version="1.0" encoding="iso-8859-1"?>
<!-- Uploaded to: SVG Repo, www.svgrepo.com, Generator: SVG Repo Mixer Tools -->
<svg fill="#000000" version="1.1" id="Layer_1" xmlns="http://www.w3.org/2000/svg" xmlns:xlink="http://www.w3.org/1999/xlink" 
	 viewBox="0 0 496 496" xml:space="preserve">
<g>
	<g>
		<g>
			<path d="M0,240v16c17.648,0,32,14.352,32,32v72c0,32.12,17.36,60.2,43.128,75.568C50.072,444.248,32,468.024,32,496h16
				c0-26.472,21.528-48,48-48h24h256h24c26.472,0,48,21.528,48,48h16c0-27.976-18.072-51.752-43.128-60.432
				C446.64,420.2,464,392.12,464,360v-72c0-17.648,14.352-32,32-32v-16H0z M448,288v72c0,39.704-32.296,72-72,72H120
				c-39.704,0-72-32.296-72-72v-72c0-12.296-4.688-23.496-12.328-32H460.32C452.688,264.504,448,275.704,448,288z"/>
			<path d="M336,80c-8.824,0-16-7.184-16-16v-8c0-22.056-17.944-40-40-40h-24V0h-16v16h-24c-22.056,0-40,17.944-40,40v8
				c0,8.816-7.184,16-16,16v16h176V80z M187.704,80C190.44,75.288,192,69.816,192,64v-8c0-13.232,10.768-24,24-24h64
				c13.232,0,24,10.768,24,24v8c0,5.816,1.56,11.288,4.296,16H187.704z"/>
			<rect x="160" y="144" width="16" height="80"/>
			<rect x="160" y="112" width="16" height="16"/>
			<rect x="192" y="192" width="16" height="32"/>
			<rect x="192" y="160" width="16" height="16"/>
			<rect x="192" y="112" width="16" height="32"/>
			<rect x="224" y="176" width="16" height="48"/>
			<rect x="224" y="128" width="16" height="32"/>
			<rect x="256" y="144" width="16" height="64"/>
			<rect x="256" y="112" width="16" height="16"/>
			<rect x="288" y="192" width="16" height="32"/>
			<rect x="288" y="112" width="16" height="64"/>
			<rect x="320" y="160" width="16" height="64"/>
			<rect x="320" y="112" width="16" height="32"/>
		</g>
	</g>
</g>
</svg>