<svg width="10" height="12" viewBox="0 0 10 12" fill="none" xmlns="http://www.w3.org/2000/svg">
<path d="M3.9613 10.7656L0.211304 7.01562C0.0706787 6.875 0.000366211 6.6875 0.000366211 6.5C0.000366211 6.28906 0.0706787 6.10156 0.211304 5.96094C0.492554 5.65625 0.984741 5.65625 1.26599 5.96094L3.75037 8.42188V1.25C3.75037 0.828125 4.07849 0.5 4.50037 0.5C4.8988 0.5 5.25037 0.828125 5.25037 1.25V8.42188L7.7113 5.96094C7.99255 5.65625 8.48474 5.65625 8.76599 5.96094C9.07068 6.24219 9.07068 6.73438 8.76599 7.01562L5.01599 10.7656C4.73474 11.0703 4.24255 11.0703 3.9613 10.7656Z" fill="white"/>
</svg>
