<svg width="12" height="10" viewBox="0 0 12 10" fill="none" xmlns="http://www.w3.org/2000/svg">
<path d="M10.9799 5.39624L7.22992 9.14624C7.08929 9.28687 6.90179 9.35718 6.71429 9.35718C6.50336 9.35718 6.31586 9.28687 6.17523 9.14624C5.87054 8.86499 5.87054 8.3728 6.17523 8.09155L8.63617 5.60718H1.46429C1.04242 5.60718 0.714294 5.27905 0.714294 4.85718C0.714294 4.45874 1.04242 4.10718 1.46429 4.10718H8.63617L6.17523 1.64624C5.87054 1.36499 5.87054 0.872803 6.17523 0.591553C6.45648 0.286865 6.94867 0.286865 7.22992 0.591553L10.9799 4.34155C11.2846 4.6228 11.2846 5.11499 10.9799 5.39624Z" fill="#1B1C21"/>
</svg>
