<?xml version="1.0" encoding="iso-8859-1"?>
<!-- Uploaded to: SVG Repo, www.svgrepo.com, Generator: SVG Repo Mixer Tools -->
<svg fill="#000000" height="800px" width="800px" version="1.1" id="Layer_1" xmlns="http://www.w3.org/2000/svg" xmlns:xlink="http://www.w3.org/1999/xlink" 
	 viewBox="0 0 512 512" xml:space="preserve">
<g>
	<g>
		<path d="M399.701,402.021c-0.155-0.768-0.383-1.526-0.684-2.247c-0.301-0.732-0.673-1.429-1.106-2.078
			c-0.445-0.662-0.938-1.275-1.503-1.828c-2.789-2.788-6.936-4.063-10.843-3.281c-0.771,0.156-1.528,0.383-2.248,0.684
			c-0.722,0.301-1.431,0.674-2.08,1.106c-0.661,0.433-1.274,0.938-1.827,1.491c-2.236,2.236-3.523,5.337-3.523,8.499
			c0,0.78,0.084,1.575,0.24,2.356c0.156,0.757,0.385,1.515,0.685,2.248c0.301,0.721,0.673,1.418,1.106,2.068
			c0.433,0.661,0.938,1.275,1.491,1.828s1.166,1.058,1.827,1.503c0.649,0.432,1.358,0.805,2.08,1.106
			c0.721,0.301,1.477,0.528,2.248,0.684c0.78,0.156,1.563,0.228,2.356,0.228c3.162,0,6.25-1.275,8.487-3.522
			c0.565-0.553,1.058-1.167,1.503-1.828c0.433-0.649,0.805-1.346,1.106-2.068c0.3-0.733,0.529-1.491,0.685-2.248
			c0.156-0.781,0.227-1.576,0.227-2.356C399.928,403.583,399.856,402.789,399.701,402.021z"/>
	</g>
</g>
<g>
	<g>
		<path d="M328.36,16.245c-20.068,0-36.396,16.327-36.396,36.397c0,16.032,10.424,29.666,24.847,34.507v11.974h-21.629v-9.79
			c0-6.638-5.383-12.021-12.021-12.021h-54.322c-6.638,0-12.021,5.383-12.021,12.021v9.79H195.19V87.149
			c14.423-4.84,24.847-18.474,24.847-34.507c0-20.07-16.327-36.397-36.396-36.397c-20.069,0-36.397,16.327-36.397,36.397
			c-0.001,15.682,9.969,29.079,23.903,34.187v23.665c0,4.314,2.28,8.088,5.696,10.208c2.021,1.54,4.534,2.463,7.269,2.463h32.705
			v49.602c0,6.638,5.383,12.021,12.021,12.021h54.322c6.638,0,12.021-5.383,12.021-12.021v-49.602h32.705
			c2.735,0,5.25-0.924,7.269-2.463c3.414-2.121,5.696-5.894,5.696-10.208V86.829c13.935-5.108,23.904-18.506,23.904-34.187
			C364.756,32.572,348.429,16.245,328.36,16.245z M183.642,64.995c-6.812,0-12.354-5.542-12.354-12.353
			c-0.001-6.813,5.542-12.354,12.354-12.354c6.811,0,12.353,5.542,12.353,12.354C195.995,59.453,190.453,64.995,183.642,64.995z
			 M271.14,160.745H240.86v-59.391h30.279V160.745z M328.358,64.995c-6.811,0-12.353-5.542-12.353-12.353
			c0-6.813,5.542-12.354,12.353-12.354c6.812,0,12.354,5.542,12.354,12.354C340.713,59.453,335.171,64.995,328.358,64.995z"/>
	</g>
</g>
<g>
	<g>
		<path d="M475.936,217.105h-43.901h-0.001H301.9H36.064C16.178,217.105,0,233.283,0,253.168v10.178
			c0,16.475,11.109,30.395,26.226,34.689v52.55c0,45.757,24.138,85.975,60.342,108.611l-16.036,16.036
			c-4.694,4.694-4.694,12.306,0,17.002c2.348,2.347,5.424,3.521,8.5,3.521s6.153-1.174,8.5-3.521l21.785-21.785
			c13.983,5.257,29.117,8.141,44.915,8.141h203.537c15.797,0,30.932-2.884,44.915-8.141l21.785,21.785
			c2.348,2.347,5.424,3.521,8.5,3.521c3.076,0,6.152-1.174,8.5-3.521c4.694-4.694,4.694-12.306,0-17.002l-16.036-16.036
			c36.204-22.637,60.342-62.854,60.342-108.611v-52.55C500.891,293.741,512,279.822,512,263.347v-10.178
			C512,233.283,495.822,217.105,475.936,217.105z M313.921,331.962h46.537c6.638,0,12.021-5.383,12.021-12.021
			c0-6.638-5.383-12.021-12.021-12.021h-46.537v-20.53v-46.242h106.094v110.986H313.921V331.962z M24.043,263.347v-10.178
			c0-6.629,5.393-12.021,12.021-12.021h253.815v34.221H36.064C29.435,275.368,24.043,269.975,24.043,263.347z M461.732,350.585
			c0,57.325-46.638,103.962-103.963,103.962H154.232c-32.377,0-61.342-14.88-80.423-38.157h276.208
			c6.638,0,12.021-5.383,12.021-12.021c0-6.638-5.383-12.021-12.021-12.021H59.036c-5.632-12.789-8.767-26.916-8.767-41.763v-51.174
			h239.609v64.744c0,6.638,5.383,12.021,12.021,12.021h130.136c6.638,0,12.021-5.383,12.021-12.021v-64.744h17.675V350.585z
			 M487.957,263.346c0,6.629-5.393,12.021-12.021,12.021h-31.879v-34.221h31.879c6.629,0,12.021,5.393,12.021,12.021V263.346z"/>
	</g>
</g>
<g>
	<g>
		<path d="M410.137,317.598c-0.144-0.771-0.386-1.528-0.686-2.262c-0.301-0.721-0.673-1.419-1.106-2.068
			c-0.432-0.661-0.936-1.274-1.489-1.827c-0.553-0.553-1.167-1.058-1.828-1.503c-0.649-0.422-1.346-0.793-2.078-1.094
			c-0.722-0.301-1.479-0.541-2.248-0.697c-3.895-0.781-8.054,0.505-10.844,3.294c-0.553,0.553-1.058,1.166-1.503,1.827
			c-0.432,0.649-0.805,1.346-1.094,2.068c-0.301,0.733-0.54,1.491-0.697,2.261c-0.156,0.769-0.227,1.563-0.227,2.343
			c0,3.162,1.286,6.263,3.522,8.499c2.236,2.236,5.337,3.522,8.499,3.522c0.78,0,1.575-0.083,2.344-0.239
			c0.769-0.157,1.527-0.385,2.248-0.685c0.732-0.301,1.429-0.674,2.078-1.106c0.661-0.433,1.275-0.938,1.828-1.491
			c2.235-2.236,3.522-5.337,3.522-8.499C410.377,319.16,410.293,318.366,410.137,317.598z"/>
	</g>
</g>
</svg>