<svg width="14" height="18" viewBox="0 0 14 18" fill="none" xmlns="http://www.w3.org/2000/svg">
<path d="M13.1172 6.42969C13.3984 7.41406 13.3984 9.52344 13.3984 9.52344C13.3984 9.52344 13.3984 11.6094 13.1172 12.6172C12.9766 13.1797 12.5312 13.6016 11.9922 13.7422C10.9844 14 7 14 7 14C7 14 2.99219 14 1.98438 13.7422C1.44531 13.6016 1 13.1797 0.859375 12.6172C0.578125 11.6094 0.578125 9.52344 0.578125 9.52344C0.578125 9.52344 0.578125 7.41406 0.859375 6.42969C1 5.86719 1.44531 5.42188 1.98438 5.28125C2.99219 5 7 5 7 5C7 5 10.9844 5 11.9922 5.28125C12.5312 5.42188 12.9766 5.86719 13.1172 6.42969ZM5.6875 11.4219L9.01562 9.52344L5.6875 7.625V11.4219Z" fill="#1B1C21"/>
</svg>
