<svg width="11" height="18" viewBox="0 0 11 18" fill="none" xmlns="http://www.w3.org/2000/svg">
<path d="M5.5 6.80469C6.97656 6.80469 8.19531 8.02344 8.19531 9.5C8.19531 11 6.97656 12.1953 5.5 12.1953C4 12.1953 2.80469 11 2.80469 9.5C2.80469 8.02344 4 6.80469 5.5 6.80469ZM5.5 11.2578C6.46094 11.2578 7.23438 10.4844 7.23438 9.5C7.23438 8.53906 6.46094 7.76562 5.5 7.76562C4.51562 7.76562 3.74219 8.53906 3.74219 9.5C3.74219 10.4844 4.53906 11.2578 5.5 11.2578ZM8.92188 6.71094C8.92188 7.0625 8.64062 7.34375 8.28906 7.34375C7.9375 7.34375 7.65625 7.0625 7.65625 6.71094C7.65625 6.35938 7.9375 6.07812 8.28906 6.07812C8.64062 6.07812 8.92188 6.35938 8.92188 6.71094ZM10.7031 7.34375C10.75 8.21094 10.75 10.8125 10.7031 11.6797C10.6562 12.5234 10.4688 13.25 9.85938 13.8828C9.25 14.4922 8.5 14.6797 7.65625 14.7266C6.78906 14.7734 4.1875 14.7734 3.32031 14.7266C2.47656 14.6797 1.75 14.4922 1.11719 13.8828C0.507812 13.25 0.320312 12.5234 0.273438 11.6797C0.226562 10.8125 0.226562 8.21094 0.273438 7.34375C0.320312 6.5 0.507812 5.75 1.11719 5.14062C1.75 4.53125 2.47656 4.34375 3.32031 4.29688C4.1875 4.25 6.78906 4.25 7.65625 4.29688C8.5 4.34375 9.25 4.53125 9.85938 5.14062C10.4688 5.75 10.6562 6.5 10.7031 7.34375ZM9.57812 12.5938C9.85938 11.9141 9.78906 10.2734 9.78906 9.5C9.78906 8.75 9.85938 7.10938 9.57812 6.40625C9.39062 5.96094 9.03906 5.58594 8.59375 5.42188C7.89062 5.14062 6.25 5.21094 5.5 5.21094C4.72656 5.21094 3.08594 5.14062 2.40625 5.42188C1.9375 5.60938 1.58594 5.96094 1.39844 6.40625C1.11719 7.10938 1.1875 8.75 1.1875 9.5C1.1875 10.2734 1.11719 11.9141 1.39844 12.5938C1.58594 13.0625 1.9375 13.4141 2.40625 13.6016C3.08594 13.8828 4.72656 13.8125 5.5 13.8125C6.25 13.8125 7.89062 13.8828 8.59375 13.6016C9.03906 13.4141 9.41406 13.0625 9.57812 12.5938Z" fill="#1B1C21"/>
</svg>
