<svg width="12" height="18" viewBox="0 0 12 18" fill="none" xmlns="http://www.w3.org/2000/svg">
<path d="M10.7578 7.0625C10.7578 7.17969 10.7578 7.27344 10.7578 7.39062C10.7578 10.6484 8.29688 14.375 3.77344 14.375C2.36719 14.375 1.07812 13.9766 0 13.2734C0.1875 13.2969 0.375 13.3203 0.585938 13.3203C1.73438 13.3203 2.78906 12.9219 3.63281 12.2656C2.55469 12.2422 1.64062 11.5391 1.33594 10.5547C1.5 10.5781 1.64062 10.6016 1.80469 10.6016C2.01562 10.6016 2.25 10.5547 2.4375 10.5078C1.3125 10.2734 0.46875 9.28906 0.46875 8.09375V8.07031C0.796875 8.25781 1.19531 8.35156 1.59375 8.375C0.914062 7.92969 0.492188 7.17969 0.492188 6.33594C0.492188 5.86719 0.609375 5.44531 0.820312 5.09375C2.03906 6.57031 3.86719 7.55469 5.90625 7.67188C5.85938 7.48438 5.83594 7.29688 5.83594 7.10938C5.83594 5.75 6.9375 4.64844 8.29688 4.64844C9 4.64844 9.63281 4.92969 10.1016 5.42188C10.6406 5.30469 11.1797 5.09375 11.6484 4.8125C11.4609 5.39844 11.0859 5.86719 10.5703 6.17188C11.0625 6.125 11.5547 5.98438 11.9766 5.79688C11.6484 6.28906 11.2266 6.71094 10.7578 7.0625Z" fill="#1B1C21"/>
</svg>
