<svg width="23" height="23" viewBox="0 0 23 23" fill="none" xmlns="http://www.w3.org/2000/svg">
<mask id="path-1-outside-1_511_287" maskUnits="userSpaceOnUse" x="0" y="0" width="23" height="23" fill="black">
<rect fill="white" width="23" height="23"/>
<path d="M21.4609 16.6172L20.5234 20.5625C20.4062 21.1484 19.9375 21.5391 19.3516 21.5391C9.50781 21.5 1.5 13.4922 1.5 3.64844C1.5 3.0625 1.85156 2.59375 2.4375 2.47656L6.38281 1.53906C6.92969 1.42188 7.51562 1.73438 7.75 2.24219L9.58594 6.5C9.78125 7.00781 9.66406 7.59375 9.23438 7.90625L7.125 9.625C8.45312 12.3203 10.6406 14.5078 13.375 15.8359L15.0938 13.7266C15.4062 13.3359 15.9922 13.1797 16.5 13.375L20.7578 15.2109C21.2656 15.4844 21.5781 16.0703 21.4609 16.6172Z"/>
</mask>
<path d="M21.4609 16.6172L20.5234 20.5625C20.4062 21.1484 19.9375 21.5391 19.3516 21.5391C9.50781 21.5 1.5 13.4922 1.5 3.64844C1.5 3.0625 1.85156 2.59375 2.4375 2.47656L6.38281 1.53906C6.92969 1.42188 7.51562 1.73438 7.75 2.24219L9.58594 6.5C9.78125 7.00781 9.66406 7.59375 9.23438 7.90625L7.125 9.625C8.45312 12.3203 10.6406 14.5078 13.375 15.8359L15.0938 13.7266C15.4062 13.3359 15.9922 13.1797 16.5 13.375L20.7578 15.2109C21.2656 15.4844 21.5781 16.0703 21.4609 16.6172Z" fill="white"/>
<path d="M21.4609 16.6172L22.4338 16.8484L22.4364 16.8376L22.4387 16.8267L21.4609 16.6172ZM20.5234 20.5625L19.5505 20.3313L19.5464 20.3488L19.5429 20.3664L20.5234 20.5625ZM19.3516 21.5391L19.3476 22.5391H19.3516V21.5391ZM2.4375 2.47656L2.63362 3.45714L2.65122 3.45362L2.66869 3.44947L2.4375 2.47656ZM6.38281 1.53906L6.17328 0.56126L6.16243 0.563586L6.15163 0.566153L6.38281 1.53906ZM7.75 2.24219L8.66827 1.84624L8.66326 1.83462L8.65796 1.82313L7.75 2.24219ZM9.58594 6.5L10.5193 6.14102L10.5121 6.12238L10.5042 6.10405L9.58594 6.5ZM9.23438 7.90625L8.6462 7.09751L8.62399 7.11367L8.6027 7.13102L9.23438 7.90625ZM7.125 9.625L6.49333 8.84977L5.87603 9.35275L6.22799 10.067L7.125 9.625ZM13.375 15.8359L12.9381 16.7354L13.6502 17.0813L14.1502 16.4676L13.375 15.8359ZM15.0938 13.7266L15.869 14.3583L15.8746 14.3513L15.0938 13.7266ZM16.5 13.375L16.896 12.4567L16.8776 12.4488L16.859 12.4417L16.5 13.375ZM20.7578 15.2109L21.2319 14.3305L21.1937 14.3099L21.1538 14.2927L20.7578 15.2109ZM20.488 16.386L19.5505 20.3313L21.4963 20.7937L22.4338 16.8484L20.488 16.386ZM19.5429 20.3664C19.5269 20.4462 19.4944 20.4845 19.4731 20.5023C19.4524 20.5195 19.4168 20.5391 19.3516 20.5391V22.5391C20.428 22.5391 21.2961 21.7983 21.504 20.7586L19.5429 20.3664ZM19.3555 20.5391C10.0602 20.5022 2.5 12.9391 2.5 3.64844H0.5C0.5 14.0452 8.95543 22.4978 19.3476 22.5391L19.3555 20.5391ZM2.5 3.64844C2.5 3.55714 2.52587 3.5166 2.53534 3.50454C2.5411 3.49721 2.54854 3.4901 2.56032 3.483C2.57219 3.47584 2.59484 3.4649 2.63362 3.45714L2.24138 1.49598C1.15342 1.71357 0.5 2.62201 0.5 3.64844H2.5ZM2.66869 3.44947L6.614 2.51197L6.15163 0.566153L2.20631 1.50365L2.66869 3.44947ZM6.59234 2.51686C6.61442 2.51213 6.66152 2.51189 6.72224 2.54347C6.78379 2.57547 6.82415 2.62249 6.84204 2.66125L8.65796 1.82313C8.23906 0.915506 7.20372 0.340452 6.17328 0.56126L6.59234 2.51686ZM6.83173 2.63814L8.66767 6.89595L10.5042 6.10405L8.66827 1.84624L6.83173 2.63814ZM8.65259 6.85898C8.68128 6.93356 8.68171 7.00227 8.67111 7.04733C8.66163 7.08763 8.648 7.09621 8.6462 7.09751L9.82255 8.71499C10.692 8.08263 10.8419 6.97978 10.5193 6.14102L8.65259 6.85898ZM8.6027 7.13102L6.49333 8.84977L7.75667 10.4002L9.86605 8.68148L8.6027 7.13102ZM6.22799 10.067C7.65404 12.9611 10.0031 15.3099 12.9381 16.7354L13.8119 14.9364C11.2781 13.7057 9.25221 11.6796 8.02201 9.18299L6.22799 10.067ZM14.1502 16.4676L15.869 14.3582L14.3185 13.0949L12.5998 15.2043L14.1502 16.4676ZM15.8746 14.3513C15.8815 14.3426 15.9103 14.3155 15.9706 14.3001C16.0294 14.2851 16.0904 14.2889 16.141 14.3083L16.859 12.4417C15.9677 12.0988 14.9127 12.3521 14.3129 13.1019L15.8746 14.3513ZM16.104 14.2933L20.3619 16.1292L21.1538 14.2927L16.896 12.4567L16.104 14.2933ZM20.2837 16.0914C20.3537 16.1291 20.4157 16.1929 20.4528 16.2657C20.4894 16.3375 20.4875 16.3872 20.4831 16.4077L22.4387 16.8267C22.6623 15.7837 22.0733 14.7835 21.2319 14.3305L20.2837 16.0914Z" fill="#472C10" mask="url(#path-1-outside-1_511_287)"/>
</svg>
