<svg width="18" height="17" viewBox="0 0 15 17" fill="none" xmlns="http://www.w3.org/2000/svg">
<mask id="path-1-outside-1_378_3088" maskUnits="userSpaceOnUse" x="-1" y="-1" width="16" height="17" fill="black">
<rect fill="white" x="-1" y="-1" width="16" height="17"/>
<path d="M13.9727 11.332L13.3164 14.0938C13.2344 14.5039 12.9062 14.7773 12.4961 14.7773C5.60547 14.75 0 9.14453 0 2.25391C0 1.84375 0.246094 1.51562 0.65625 1.43359L3.41797 0.777344C3.80078 0.695312 4.21094 0.914062 4.375 1.26953L5.66016 4.25C5.79688 4.60547 5.71484 5.01562 5.41406 5.23438L3.9375 6.4375C4.86719 8.32422 6.39844 9.85547 8.3125 10.7852L9.51562 9.30859C9.73438 9.03516 10.1445 8.92578 10.5 9.0625L13.4805 10.3477C13.8359 10.5391 14.0547 10.9492 13.9727 11.332Z"/>
</mask>
<path d="M13.9727 11.332L14.9456 11.5632L14.9481 11.5524L14.9505 11.5416L13.9727 11.332ZM13.3164 14.0938L12.3435 13.8626L12.3393 13.88L12.3358 13.8976L13.3164 14.0938ZM12.4961 14.7773L12.4921 15.7773H12.4961V14.7773ZM0.65625 1.43359L0.852366 2.41417L0.86997 2.41065L0.887436 2.4065L0.65625 1.43359ZM3.41797 0.777344L3.20844 -0.200459L3.19758 -0.198132L3.18678 -0.195566L3.41797 0.777344ZM4.375 1.26953L5.29327 0.873579L5.28826 0.861961L5.28296 0.850473L4.375 1.26953ZM5.66016 4.25L6.5935 3.89102L6.58633 3.87238L6.57843 3.85405L5.66016 4.25ZM5.41406 5.23438L4.82589 4.42564L4.80368 4.44179L4.78239 4.45914L5.41406 5.23438ZM3.9375 6.4375L3.30583 5.66227L2.68853 6.16525L3.04049 6.87951L3.9375 6.4375ZM8.3125 10.7852L7.8756 11.6847L8.58768 12.0305L9.08773 11.4168L8.3125 10.7852ZM9.51562 9.30859L10.2909 9.94029L10.2965 9.93329L9.51562 9.30859ZM10.5 9.0625L10.896 8.14423L10.8776 8.13632L10.859 8.12915L10.5 9.0625ZM13.4805 10.3477L13.9546 9.46719L13.9163 9.44659L13.8764 9.42938L13.4805 10.3477ZM12.9997 11.1008L12.3435 13.8626L14.2893 14.3249L14.9456 11.5632L12.9997 11.1008ZM12.3358 13.8976C12.3374 13.8895 12.3489 13.8546 12.3891 13.8211C12.43 13.7871 12.4734 13.7773 12.4961 13.7773V15.7773C13.3967 15.7773 14.1242 15.1538 14.297 14.2899L12.3358 13.8976ZM12.5001 13.7774C6.15785 13.7522 1 8.59148 1 2.25391H-1C-1 9.69758 5.05308 15.7478 12.4921 15.7773L12.5001 13.7774ZM1 2.25391C1 2.2505 0.999502 2.28906 0.960635 2.33852C0.942226 2.36195 0.920003 2.38121 0.897169 2.39499C0.87444 2.4087 0.85753 2.41314 0.852366 2.41417L0.460134 0.453013C-0.45205 0.63545 -1 1.40326 -1 2.25391H1ZM0.887436 2.4065L3.64916 1.75025L3.18678 -0.195566L0.425064 0.460684L0.887436 2.4065ZM3.6275 1.75515C3.56755 1.76799 3.52968 1.7531 3.51716 1.74659C3.50547 1.74051 3.48431 1.726 3.46704 1.68859L5.28296 0.850473C4.93437 0.0951939 4.07481 -0.38611 3.20844 -0.200459L3.6275 1.75515ZM3.45673 1.66548L4.74188 4.64595L6.57843 3.85405L5.29327 0.873579L3.45673 1.66548ZM4.72681 4.60898C4.7262 4.60739 4.72078 4.59407 4.72775 4.56442C4.73585 4.53001 4.76323 4.47121 4.82589 4.42564L6.00223 6.04311C6.74282 5.50451 6.85751 4.57744 6.5935 3.89102L4.72681 4.60898ZM4.78239 4.45914L3.30583 5.66227L4.56917 7.21273L6.04574 6.00961L4.78239 4.45914ZM3.04049 6.87951C4.06811 8.96497 5.76092 10.6575 7.8756 11.6847L8.7494 9.88565C7.03596 9.0534 5.66627 7.68347 4.83451 5.99549L3.04049 6.87951ZM9.08773 11.4168L10.2909 9.94027L8.74039 8.67692L7.53727 10.1535L9.08773 11.4168ZM10.2965 9.93329C10.2565 9.98322 10.2179 9.9971 10.2035 10.0008C10.1876 10.0048 10.1666 10.0057 10.141 9.99585L10.859 8.12915C10.12 7.84494 9.24083 8.0513 8.73476 8.6839L10.2965 9.93329ZM10.104 9.98077L13.0845 11.2659L13.8764 9.42938L10.896 8.14423L10.104 9.98077ZM13.0064 11.2281C13.002 11.2258 13.0007 11.2242 13.0011 11.2247C13.0016 11.2252 13.0011 11.2249 12.9997 11.2223C12.9982 11.2193 12.9817 11.1841 12.9949 11.1225L14.9505 11.5416C15.1388 10.6626 14.6436 9.8382 13.9546 9.46719L13.0064 11.2281Z" fill="#1B1C21" mask="url(#path-1-outside-1_378_3088)"/>
</svg>
