<svg width="321" height="319" viewBox="0 0 321 319" fill="none" xmlns="http://www.w3.org/2000/svg">
<g opacity="0.05">
<path d="M47.1531 11.2763C47.1531 11.2763 48.3066 37.0921 58.1526 50.9513C67.9986 64.8104 97.0297 96.3997 98.3194 98.1172C99.609 99.8347 78.0218 55.3329 65.4769 36.5608C52.932 17.7886 47.1531 11.2763 47.1531 11.2763Z" fill="#1B1C21"/>
<path d="M98.3395 97.9273L98.3388 98.0835C79.4667 71.3083 47.1531 11.2763 47.1531 11.2763C47.1531 11.2763 57.7553 17.4532 70.3037 36.2386C82.1715 53.8593 97.1919 94.7822 98.3395 97.9273Z" fill="#1B1C21"/>
<path d="M47.1792 70.5595C64.5537 80.2887 96.3591 104.69 105.57 112.211C105.598 112.336 105.635 112.459 105.683 112.578C105.73 112.781 105.79 112.98 105.864 113.175L106.046 113.537C97.5271 109.737 65.2292 95.5629 50.9852 88.256C34.9363 80.0079 17.5943 55.7151 17.5943 55.7151C17.5943 55.7151 26.2087 58.8659 47.1792 70.5595Z" fill="#1B1C21"/>
<path d="M105.658 112.62C105.705 112.823 105.766 113.022 105.84 113.217L105.91 113.347C74.5911 96.4504 17.5943 55.7151 17.5943 55.7151C17.5943 55.7151 28.8049 58.4752 49.7513 70.2108C67.1341 79.9448 98.4192 104.415 107.61 111.913C107.653 112.072 105.613 112.505 105.658 112.62Z" fill="#1B1C21"/>
<path d="M106.921 112.388C106.307 111.418 105.665 110.477 104.99 109.573C102.312 94.8427 96.9669 65.7121 95.1413 51.0935C92.6781 31.5554 102.504 0.202772 102.504 0.202772C102.504 0.202772 104.907 9.83165 107.399 35.9838C109.36 56.5851 108.002 97.4231 107.149 112.653L106.921 112.388Z" fill="#1B1C21"/>
<path d="M106.921 112.388C106.561 111.811 106.183 111.246 105.8 110.689C102.033 70.7283 102.496 0.19808 102.496 0.19808C102.496 0.19808 109.617 10.1579 112.109 36.31C114.065 56.9197 109.269 107.626 107.166 112.663L106.921 112.388Z" fill="#1B1C21"/>
<path d="M126.099 142.817C125.551 141.695 124.979 140.594 124.363 139.511C123.308 123.906 121.223 93.0794 121.069 77.7931C120.858 57.375 135.374 27.8355 135.374 27.8355C135.374 27.8355 136.758 38.1842 136.17 65.3316C135.71 86.7162 129.127 127.87 126.313 143.086L126.099 142.817Z" fill="#1B1C21"/>
<path d="M126.099 142.817C125.779 142.152 125.446 141.489 125.094 140.839C126.109 99.3559 135.383 27.8402 135.383 27.8402C135.383 27.8402 141.454 39.017 140.858 66.1596C140.385 87.5477 128.277 143.269 126.313 143.086L126.099 142.817Z" fill="#1B1C21"/>
<path d="M138.343 163.06C139.527 147.103 138.724 114.713 140.762 99.2723C143.535 78.6644 162.587 52.135 162.587 52.135C162.587 52.135 162.49 62.8591 157.924 90.0585C154.339 111.472 147.467 152.235 142.337 167.009C142.345 166.879 141.803 164.777 138.343 163.06Z" fill="#1B1C21"/>
<path d="M139.977 159.921C139.74 159.169 162.615 52.1627 162.615 52.1627C162.615 52.1627 166.204 65.3164 161.677 92.5268C158.092 113.941 148.334 148.565 143.199 163.269C143.192 163.164 140.027 160.028 139.977 159.921Z" fill="#1B1C21"/>
<path d="M156.79 183.114C156.436 181.792 156.115 180.41 155.727 179.146C158.315 161.842 163.574 127.863 167.111 111.219C171.839 88.9671 194.661 60.4207 194.661 60.4207C194.661 60.4207 193.653 72.0056 186.433 101.363C180.746 124.481 163.669 167.617 156.906 183.495L156.79 183.114Z" fill="#1B1C21"/>
<path d="M156.79 183.114C156.596 182.309 156.396 181.511 156.184 180.718C167.299 135.918 194.661 60.4207 194.661 60.4207C194.661 60.4207 193.653 72.0056 186.433 101.363C180.746 124.481 163.669 167.617 156.906 183.495L156.79 183.114Z" fill="#1B1C21"/>
<path d="M178.693 205.008C178.404 203.98 178.091 202.972 177.737 201.996C179.175 186.511 178.605 155.384 180.76 140.067C183.638 119.587 203.703 87.8167 203.703 87.8167C203.703 87.8167 203.321 97.9509 198.753 125.328C195.159 146.893 183.468 189.437 178.811 205.289L178.693 205.008Z" fill="#1B1C21"/>
<path d="M178.693 205.008C178.522 204.395 178.341 203.799 178.147 203.205C185.176 161.415 203.703 87.8167 203.703 87.8167C203.703 87.8167 206.147 100.824 201.579 128.201C197.97 149.791 183.472 189.45 178.811 205.289L178.693 205.008Z" fill="#1B1C21"/>
<path d="M194.729 229.24C194.502 228.102 194.239 226.989 193.944 225.912C196.702 209.747 199.873 175.491 203.393 159.631C208.103 138.419 230.806 109.111 230.806 109.111C230.806 109.111 229.585 119.768 222.525 148.032C216.968 170.287 201.075 213.502 194.819 229.549L194.729 229.24Z" fill="#1B1C21"/>
<path d="M194.729 229.24C194.596 228.559 194.403 227.867 194.285 227.239C205.134 184.12 230.81 109.103 230.81 109.103C230.81 109.103 231.76 122.332 224.702 150.575C219.145 172.83 201.075 213.502 194.843 229.507L194.729 229.24Z" fill="#1B1C21"/>
<path d="M209.065 240.145C208.993 238.817 208.881 237.5 208.738 236.198C213.996 220.157 224.428 188.55 230.454 173.153C238.494 152.623 264.376 128.247 264.376 128.247C264.376 128.247 261.541 139.124 250.02 166.11C240.943 187.372 218.004 226.25 209.124 240.526L209.065 240.145Z" fill="#1B1C21"/>
<path d="M209.065 240.145C209.017 239.357 208.968 238.569 208.884 237.804C226.563 196.627 264.366 128.264 264.366 128.264C264.366 128.264 261.531 139.141 250.01 166.126C240.928 187.397 217.989 226.276 209.119 240.534L209.065 240.145Z" fill="#1B1C21"/>
<path d="M225.47 250.332C225.476 249.217 225.457 248.088 225.392 246.999C231.247 232.811 236.374 204.136 242.868 190.485C251.581 172.199 283.692 149.643 283.692 149.643C283.692 149.643 280.416 159.191 268.061 183.302C258.348 202.296 234.637 237.631 225.503 250.642L225.47 250.332Z" fill="#1B1C21"/>
<path d="M225.47 250.332C225.476 249.664 225.468 249 225.489 248.363C244.411 211.56 283.726 149.662 283.726 149.662C283.726 149.662 283.62 162.629 271.265 186.74C261.543 205.729 234.649 237.649 225.521 250.652L225.47 250.332Z" fill="#1B1C21"/>
<path d="M150.147 318.369C150.147 318.369 178.207 316.912 194.447 308.676C213.498 298.959 231.64 287.554 248.654 274.598C250.627 273.389 200.643 290.234 179.194 301.49C157.744 312.746 150.147 318.369 150.147 318.369Z" fill="#1B1C21"/>
<path d="M248.465 274.556L248.629 274.583C217.951 291.829 150.147 318.369 150.147 318.369C150.147 318.369 158.594 305.521 180.04 294.252C200.254 283.646 244.948 275.321 248.465 274.556Z" fill="#1B1C21"/>
<path d="M320.334 193.443C320.334 193.443 295.131 207.307 283.33 222.032C269.519 239.346 257.176 257.783 246.431 277.15C245.075 279.13 284.603 241.52 300.053 221.734C315.502 201.947 320.334 193.443 320.334 193.443Z" fill="#1B1C21"/>
<path d="M246.59 277.108L246.431 277.151C268.099 247.815 320.33 193.452 320.33 193.452C320.33 193.452 317.412 208.888 301.953 228.691C287.425 247.287 249.523 274.876 246.59 277.108Z" fill="#1B1C21"/>
<path d="M63.6926 244.479C63.6926 244.479 98.7486 249.711 125.739 242.728C174.625 230.068 184.601 223.035 187.096 222.239C189.591 221.443 134.683 225.861 107.544 232.715C80.4054 239.568 63.6926 244.479 63.6926 244.479Z" fill="#1B1C21"/>
<path d="M186.912 222.132L187.096 222.239C148.15 233.391 63.6926 244.479 63.6926 244.479C63.6926 244.479 75.6375 237.464 102.751 230.596C128.342 224.079 182.658 221.946 186.912 222.132Z" fill="#1B1C21"/>
<path d="M46.3778 100.961C67.2183 107.592 105.498 124.46 116.052 129.423C116.14 129.701 116.285 129.956 116.48 130.173L121.288 133.99C111.511 131.554 67.8737 118.214 50.8314 113.217C31.7808 107.63 11.1461 90.9193 11.1461 90.9193C11.1461 90.9193 21.4589 93.0265 46.3778 100.961Z" fill="#1B1C21"/>
<path d="M116.444 130.12C79.1871 118.763 11.1968 90.9487 11.1968 90.9487C11.1968 90.9487 22.9211 91.9475 47.8616 99.8833C68.7057 106.528 105.515 124.47 116.06 129.428C116.147 129.679 116.277 129.913 116.444 130.12Z" fill="#1B1C21"/>
<path d="M44.5253 123.23C69.2468 129.105 119.406 144.321 135.31 149.992C135.592 150.49 139.653 155.854 140.004 156.291C125.044 153.614 70.2063 140.226 49.8638 135.851C25.9658 130.642 0.326707 113.96 0.326707 113.96C0.326707 113.96 13.24 115.825 44.5253 123.23Z" fill="#1B1C21"/>
<path d="M130.063 150.731C82.9674 139.855 0.326707 113.96 0.326707 113.96C0.326707 113.96 13.2065 115.805 44.4822 123.227C69.2036 129.102 113.394 144.003 129.313 149.649C129.534 150.028 129.785 150.39 130.063 150.731Z" fill="#1B1C21"/>
<path d="M2.03968 139.193C2.03968 139.193 31.4781 156.19 55.8274 161.469C104.583 172.084 150.272 170.271 153.427 170.616C156.582 170.962 80.1304 150.172 47.6841 145.048C15.2379 139.925 2.03968 139.193 2.03968 139.193Z" fill="#1B1C21"/>
<path d="M142.664 167.836L142.807 167.918C95.1814 161.311 2.05907 139.16 2.05907 139.16C2.05907 139.16 18.4721 138.739 50.9087 143.88C81.4834 148.739 138.524 166.273 142.664 167.836Z" fill="#1B1C21"/>
<path d="M70.8099 180.631C92.8428 179.541 137.241 181.221 162.121 182.502C163.161 184.109 161.254 184.372 162.486 185.743C161.783 186.825 112.226 191.872 80.9632 191.827C52.5602 191.845 18.876 184.72 18.876 184.72C18.876 184.72 33.7212 182.444 70.8099 180.631Z" fill="#1B1C21"/>
<path d="M155.966 185.143C99.0983 186.932 18.876 184.72 18.876 184.72C18.876 184.72 33.7067 182.469 70.8099 180.631C92.8428 179.541 128.862 180.8 153.738 182.068C154.424 183.133 155.168 184.16 155.966 185.143Z" fill="#1B1C21"/>
<path d="M89.6866 210.07C112.055 206.714 148.996 204.189 174.567 202.838C175.818 204.291 177.189 205.636 178.665 206.859C155.195 211.794 120.538 218.925 102.259 222.015C73.7062 226.922 37.1502 219.426 37.1502 219.426C37.1502 219.426 51.9982 215.731 89.6866 210.07Z" fill="#1B1C21"/>
<path d="M177.222 205.601C119.311 213.263 37.1259 219.468 37.1259 219.468C37.1259 219.468 53.9378 211.461 91.6214 205.809C114.003 202.449 175.829 201.99 174.567 202.838C175.398 203.81 176.284 204.732 177.222 205.601Z" fill="#1B1C21"/>
<path d="M133.829 259.957C150.884 252.303 179.619 242.065 199.526 235.264C200.786 236.136 202.115 236.904 203.501 237.559C185.906 246.69 170.502 260.296 146.626 269.246C124.3 277.603 94.0609 279.155 94.0609 279.155C94.0609 279.155 105.091 272.854 133.829 259.957Z" fill="#1B1C21"/>
<path d="M202.199 236.908C157.876 255.881 94.0755 279.13 94.0755 279.13C94.0755 279.13 103.649 267.022 132.377 254.142C149.399 246.469 179.614 242.073 199.563 235.296C200.413 235.88 201.293 236.418 202.199 236.908Z" fill="#1B1C21"/>
<path d="M167.953 275.811C183.091 267.565 213.782 252.486 219.455 250.214C220.547 251.125 221.721 251.93 222.964 252.62C207.307 262.423 196.313 278.095 176.902 286.536C156.763 295.328 125.859 297.469 125.859 297.469C125.859 297.469 142.454 289.684 167.953 275.811Z" fill="#1B1C21"/>
<path d="M221.764 251.871C182.409 272.349 125.859 297.469 125.859 297.469C125.859 297.469 133.74 287.694 159.238 273.822C174.38 265.589 201.807 257.559 219.497 250.239C220.22 250.827 220.977 251.372 221.764 251.871Z" fill="#1B1C21"/>
<path d="M58.1852 32.3398C58.1852 32.3398 155.917 224.914 271.011 292.605L272.733 288.209C272.733 288.209 157.712 210.261 58.1852 32.3398Z" fill="#1B1C21"/>
</g>
</svg>
