<svg width="194" height="305" viewBox="0 0 194 305" fill="none" xmlns="http://www.w3.org/2000/svg">
<g opacity="0.05">
<path d="M151.212 304.315C151.212 304.315 159.584 283.43 156.764 268.901C153.945 254.372 142.293 218.877 141.876 217.056C141.459 215.234 142.577 258.278 145.776 277.676C148.975 297.073 151.212 304.315 151.212 304.315Z" fill="#1B1C21"/>
<path d="M141.825 217.176L141.889 217.063C147.227 245.087 151.226 304.323 151.226 304.323C151.226 304.323 145.034 295.602 141.853 276.206C138.824 257.907 141.596 220.084 141.825 217.176Z" fill="#1B1C21"/>
<path d="M172.591 257.27C162.321 243.314 145.883 212.512 141.286 203.234C141.309 203.126 141.325 203.017 141.334 202.907C141.363 202.727 141.382 202.532 141.392 202.369C141.399 202.253 141.398 202.137 141.387 202.021C146.746 208.052 167.306 230.905 175.888 241.838C185.609 254.168 190.642 279.657 190.642 279.657C190.642 279.657 184.964 274.097 172.591 257.27Z" fill="#1B1C21"/>
<path d="M141.307 202.89C141.335 202.71 141.354 202.515 141.364 202.353C141.369 202.311 141.367 202.27 141.361 202.229C160.151 226.867 190.67 279.673 190.67 279.673C190.67 279.673 182.778 273.461 170.376 256.618C160.111 242.655 144.103 211.998 139.539 202.711C139.536 202.635 141.303 203.01 141.307 202.89Z" fill="#1B1C21"/>
<path d="M140.215 202.625C140.35 203.639 140.536 204.597 140.74 205.557C137.587 218.228 131.325 243.221 127.526 255.473C122.448 271.851 103.382 293.175 103.382 293.175C103.382 293.175 104.921 284.708 112.359 263.042C118.214 245.999 133.987 214.11 140.133 202.362L140.215 202.625Z" fill="#1B1C21"/>
<path d="M140.215 202.625C140.303 203.218 140.399 203.798 140.506 204.374C129.087 237.392 103.386 293.168 103.386 293.168C103.386 293.168 101.32 282.713 108.757 261.083C114.611 244.04 136.653 205.555 140.152 202.345L140.215 202.625Z" fill="#1B1C21"/>
<path d="M132.982 172.375C133.007 173.466 133.061 174.554 133.16 175.631C128.401 188.394 118.955 213.57 113.582 225.745C106.399 242.012 84.2571 260.204 84.2571 260.204C84.2571 260.204 86.8845 251.505 97.1142 230.205C105.171 213.415 125.213 183.158 132.935 172.067L132.982 172.375Z" fill="#1B1C21"/>
<path d="M132.982 172.375C132.997 173.03 133.027 173.674 133.07 174.297C117.372 206.801 84.2652 260.19 84.2652 260.19C84.2652 260.19 83.4763 249.144 93.71 227.838C101.774 211.051 131.428 171.226 132.943 172.054L132.982 172.375Z" fill="#1B1C21"/>
<path d="M131.371 150.228C124.695 162.455 113.677 188.426 106.486 199.908C96.8723 215.247 72.2313 229.424 72.2313 229.424C72.2313 229.424 76.1762 220.971 89.5421 201.061C100.088 185.371 120.234 155.501 129.576 145.655C129.593 145.74 129.244 147.625 131.371 150.228Z" fill="#1B1C21"/>
<path d="M130.999 148.198C130.912 148.868 72.2474 229.396 72.2474 229.396C72.2474 229.396 74.1066 217.652 87.5057 197.734C98.0631 182.041 120.61 154.979 129.966 145.142C129.951 145.282 130.982 148.114 130.999 148.198Z" fill="#1B1C21"/>
<path d="M127.729 124.484C127.491 125.674 127.289 126.867 127.127 128.055C118.846 140.778 102.49 165.866 93.6769 177.777C81.9285 193.718 53.5592 208.146 53.5592 208.146C53.5592 208.146 58.5277 199.33 74.8114 178.644C87.6365 162.361 116.686 134.311 127.789 124.153L127.729 124.484Z" fill="#1B1C21"/>
<path d="M123.78 125.815C123.643 126.521 124.955 127.587 124.836 128.295C99.9088 159.82 53.5549 208.153 53.5549 208.153C53.5549 208.153 58.5233 199.337 74.807 178.651C87.6403 162.354 123.79 125.699 123.78 125.815Z" fill="#1B1C21"/>
<path d="M115.991 102.523C115.831 103.366 115.718 104.162 115.634 104.955C109.281 115.554 98.9797 137.869 92.1718 148.121C83.0693 161.829 57.853 178.396 57.853 178.396C57.853 178.396 61.6149 171.297 74.2814 153.182C84.2597 138.913 107.216 112.163 115.98 102.282L115.991 102.523Z" fill="#1B1C21"/>
<path d="M115.991 102.523C115.903 103.015 115.82 103.5 115.758 103.979C96.3493 131.617 57.8669 178.404 57.8669 178.404C57.8669 178.404 60.6087 168.405 73.2781 150.301C83.2634 136.036 107.241 112.168 115.973 102.278L115.991 102.523Z" fill="#1B1C21"/>
<path d="M112.633 78.3936C112.403 79.3744 112.21 80.3574 112.058 81.3174C104.056 93.135 89.2313 119.153 80.7224 130.472C69.3535 145.594 40.8325 160.674 40.8325 160.674C40.8325 160.674 45.6255 152.664 61.388 132.8C73.8014 117.149 101.947 88.6054 112.674 78.1275L112.633 78.3936Z" fill="#1B1C21"/>
<path d="M112.633 78.3936C112.5 78.9809 112.37 79.561 112.263 80.1353C88.1355 110.437 40.8102 160.68 40.8102 160.68C40.8102 160.68 44.7836 149.876 60.5623 129.984C72.9827 114.337 101.933 88.5971 112.656 78.1262L112.633 78.3936Z" fill="#1B1C21"/>
<path d="M105.157 64.5726C104.741 65.651 104.349 66.7346 104.004 67.8174C94.0586 78.6436 74.4116 99.9693 64.1075 109.99C50.3375 123.389 21.0572 133.399 21.0572 133.399C21.0572 133.399 27.2121 125.801 46.0632 108.544C60.9014 94.9478 93.0735 72.3774 105.249 64.2514L105.157 64.5726Z" fill="#1B1C21"/>
<path d="M105.157 64.5726C104.908 65.2146 104.671 65.8537 104.447 66.5008C75.6273 92.8406 21.0976 133.394 21.0976 133.394C21.0976 133.394 27.2525 125.796 46.1036 108.539C60.9418 94.9429 93.118 72.3655 105.29 64.2465L105.157 64.5726Z" fill="#1B1C21"/>
<path d="M95.8466 50.6085C95.4266 51.498 95.0498 52.3937 94.7062 53.2806C84.9668 62.4203 70.5935 83.3294 60.5205 91.7994C47.0358 103.165 13.4516 109.53 13.4516 109.53C13.4516 109.53 19.4865 103.144 37.9473 88.459C52.4931 76.8926 83.9932 57.4144 95.915 50.3766L95.8466 50.6085Z" fill="#1B1C21"/>
<path d="M95.8469 50.6084C95.5973 51.1379 95.3658 51.6685 95.1454 52.1961C66.9055 74.567 13.4681 109.502 13.4681 109.502C13.4681 109.502 18.2138 99.2566 36.6868 84.5502C51.2255 72.9797 84.0299 57.3512 95.9477 50.3205L95.8469 50.6084Z" fill="#1B1C21"/>
<path d="M180.044 23.7594C180.044 23.7594 157.27 14.8206 141.432 15.4998C122.839 16.3577 104.36 18.8796 86.2165 23.0351C84.2056 23.2774 129.907 27.9117 150.947 26.7281C171.988 25.5445 180.044 23.7594 180.044 23.7594Z" fill="#1B1C21"/>
<path d="M86.3268 23.1358L86.2005 23.0629C116.722 20.4302 180.037 23.7732 180.037 23.7732C180.037 23.7732 168.714 30.9231 147.664 32.1388C127.818 33.2634 89.3888 23.8278 86.3268 23.1358Z" fill="#1B1C21"/>
<path d="M0.161937 61.5913C0.161937 61.5913 25.1312 59.6635 39.7841 52.2379C56.9624 43.4739 73.3814 33.2954 88.8712 21.8078C90.6568 20.7244 45.7881 36.3293 26.4211 46.4593C7.054 56.5893 0.161937 61.5913 0.161937 61.5913Z" fill="#1B1C21"/>
<path d="M88.6903 21.7968L88.8339 21.8236C61.0991 37.2917 0.124616 61.6071 0.124616 61.6071C0.124616 61.6071 7.99386 50.424 27.3539 40.29C45.6492 30.72 85.6031 22.4936 88.6903 21.7968Z" fill="#1B1C21"/>
<path d="M221.947 113.449C221.947 113.449 196.094 96.6521 172.151 92.4925C128.808 84.9253 118.412 86.922 116.11 86.6786C113.809 86.4353 158.98 102.682 182.965 106.997C206.95 111.311 221.947 113.449 221.947 113.449Z" fill="#1B1C21"/>
<path d="M116.272 86.8368L116.146 86.6986C151.056 91.8576 221.947 113.449 221.947 113.449C221.947 113.449 209.983 114.727 185.984 110.405C163.413 106.364 119.58 88.5127 116.272 86.8368Z" fill="#1B1C21"/>
<path d="M184.118 233.464C169.969 220.702 145.681 193.563 139.107 185.829C139.133 185.578 139.111 185.324 139.043 185.081L136.571 180.304C143.449 185.763 173.252 212.035 184.966 222.128C198.08 233.442 208.382 254.05 208.382 254.05C208.382 254.05 201.022 248.715 184.118 233.464Z" fill="#1B1C21"/>
<path d="M139.047 185.139C164.481 207.522 208.403 254.062 208.403 254.062C208.403 254.062 199.457 249.027 182.553 233.777C168.404 221.014 145.678 193.551 139.128 185.841C139.147 185.604 139.119 185.365 139.047 185.139Z" fill="#1B1C21"/>
<path d="M193.592 216.472C176.107 202.925 141.812 172.815 131.238 162.594C131.191 162.108 129.923 156.38 129.788 155.919C140.694 163.441 179.33 193.746 193.875 204.558C210.994 217.248 225.273 239.702 225.273 239.702C225.273 239.702 215.719 233.597 193.592 216.472Z" fill="#1B1C21"/>
<path d="M135.644 163.874C169.089 189.461 225.273 239.702 225.273 239.702C225.273 239.702 215.697 233.603 193.592 216.472C176.1 202.92 146.42 175.204 135.841 165.008C135.801 164.626 135.735 164.247 135.644 163.874Z" fill="#1B1C21"/>
<path d="M232.993 219.087C232.993 219.087 215.779 195.041 198.389 182.091C163.551 156.13 129.93 142.79 127.551 141.37C125.171 139.949 175.027 182.289 198.938 198.041C222.85 213.792 232.993 219.087 232.993 219.087Z" fill="#1B1C21"/>
<path d="M131.825 145.811L131.775 145.671C167.142 168.026 233.026 219.096 233.026 219.096C233.026 219.096 219.865 213.518 195.981 197.783C173.466 182.95 134.547 148.534 131.825 145.811Z" fill="#1B1C21"/>
<path d="M193.395 161.508C175.536 154.443 140.936 137.095 121.672 127.18C121.426 125.532 123.038 126.014 122.532 124.459C123.487 123.859 164.607 137.692 189.404 148.96C211.922 159.153 236.049 176.947 236.049 176.947C236.049 176.947 223.485 173.398 193.395 161.508Z" fill="#1B1C21"/>
<path d="M127.503 127.29C173.236 146.388 236.049 176.946 236.049 176.946C236.049 176.946 223.469 173.425 193.396 161.507C175.536 154.442 147.433 140.49 128.164 130.535C128.003 129.442 127.782 128.359 127.503 127.29Z" fill="#1B1C21"/>
<path d="M189.03 131.379C170.082 125.988 139.877 114.705 119.144 106.589C118.653 104.982 118.028 103.42 117.275 101.918C137.652 106.469 167.703 113.257 183.33 117.367C207.713 123.746 234.023 142.846 234.023 142.846C234.023 142.846 220.943 140.449 189.03 131.379Z" fill="#1B1C21"/>
<path d="M118.013 103.428C166.682 118.186 234.079 142.831 234.079 142.831C234.079 142.831 217.888 143.166 185.946 134.08C166.995 128.695 117.799 106.813 119.104 106.593C118.801 105.518 118.437 104.461 118.013 103.428Z" fill="#1B1C21"/>
<path d="M171.964 75.9474C155.677 75.899 129.23 73.6619 110.975 71.8511C110.287 70.7129 109.504 69.635 108.635 68.6289C125.902 67.7269 142.996 62.506 165.182 64.0047C185.874 65.4173 210.42 75.0796 210.42 75.0796C210.42 75.0796 199.374 76.0645 171.964 75.9474Z" fill="#1B1C21"/>
<path d="M109.484 69.6527C151.457 70.5531 210.42 75.0796 210.42 75.0796C210.42 75.0796 198.434 81.2568 171.066 81.1169C154.778 81.0685 129.251 73.674 110.996 71.8632C110.532 71.0998 110.027 70.3619 109.484 69.6527Z" fill="#1B1C21"/>
<path d="M150.621 51.0971C135.651 52.1841 105.886 53.1017 100.568 52.866C100.032 51.751 99.3925 50.6892 98.6567 49.695C114.596 47.5591 128.94 39.1131 147.372 39.3701C166.51 39.6512 191.797 49.1148 191.797 49.1148C191.797 49.1148 175.82 49.2738 150.621 51.0971Z" fill="#1B1C21"/>
<path d="M99.3544 50.7064C137.911 48.6431 191.805 49.1012 191.805 49.1012C191.805 49.1012 182.036 54.0141 156.833 55.8444C141.868 56.9244 117.235 53.424 100.554 52.8583C100.199 52.1167 99.7988 51.3979 99.3544 50.7064Z" fill="#1B1C21"/>
<path d="M150.065 283.632C150.065 283.632 141.852 95.7774 74.9187 0.748791L71.9776 3.6068C71.9776 3.6068 135.16 106.752 150.065 283.632Z" fill="#1B1C21"/>
</g>
</svg>
