<svg width="289" height="319" viewBox="0 0 289 319" fill="none" xmlns="http://www.w3.org/2000/svg">
<g opacity="0.05">
<path d="M241.345 11.2763C241.345 11.2763 240.191 37.0921 230.345 50.9513C220.499 64.8104 191.468 96.3997 190.179 98.1172C188.889 99.8347 210.476 55.3329 223.021 36.5608C235.566 17.7886 241.345 11.2763 241.345 11.2763Z" fill="#1B1C21"/>
<path d="M190.159 97.9273L190.159 98.0835C209.031 71.3083 241.345 11.2763 241.345 11.2763C241.345 11.2763 230.743 17.4532 218.194 36.2386C206.327 53.8593 191.306 94.7822 190.159 97.9273Z" fill="#1B1C21"/>
<path d="M241.319 70.5595C223.944 80.2887 192.139 104.69 182.928 112.211C182.9 112.336 182.863 112.459 182.815 112.578C182.769 112.781 182.708 112.98 182.634 113.175L182.452 113.537C190.971 109.737 223.269 95.5629 237.513 88.256C253.562 80.0079 270.904 55.7151 270.904 55.7151C270.904 55.7151 262.289 58.8659 241.319 70.5595Z" fill="#1B1C21"/>
<path d="M182.84 112.62C182.793 112.823 182.732 113.022 182.658 113.217L182.588 113.347C213.907 96.4504 270.904 55.7151 270.904 55.7151C270.904 55.7151 259.693 58.4752 238.747 70.2108C221.364 79.9448 190.079 104.415 180.888 111.913C180.846 112.072 182.885 112.505 182.84 112.62Z" fill="#1B1C21"/>
<path d="M181.577 112.388C182.191 111.418 182.833 110.477 183.508 109.573C186.186 94.8427 191.531 65.7121 193.357 51.0935C195.82 31.5554 185.994 0.202772 185.994 0.202772C185.994 0.202772 183.591 9.83165 181.099 35.9838C179.138 56.5851 180.496 97.4231 181.35 112.653L181.577 112.388Z" fill="#1B1C21"/>
<path d="M181.577 112.388C181.937 111.811 182.315 111.246 182.698 110.689C186.465 70.7283 186.002 0.19808 186.002 0.19808C186.002 0.19808 178.881 10.1579 176.389 36.31C174.433 56.9197 179.23 107.626 181.332 112.663L181.577 112.388Z" fill="#1B1C21"/>
<path d="M162.399 142.817C162.947 141.695 163.519 140.594 164.135 139.511C165.19 123.906 167.275 93.0794 167.429 77.7931C167.64 57.375 153.124 27.8355 153.124 27.8355C153.124 27.8355 151.74 38.1842 152.328 65.3316C152.788 86.7162 159.371 127.87 162.185 143.086L162.399 142.817Z" fill="#1B1C21"/>
<path d="M162.399 142.817C162.719 142.152 163.052 141.489 163.404 140.839C162.389 99.3559 153.115 27.8402 153.115 27.8402C153.115 27.8402 147.044 39.017 147.64 66.1596C148.113 87.5477 160.222 143.269 162.185 143.086L162.399 142.817Z" fill="#1B1C21"/>
<path d="M150.155 163.06C148.971 147.103 149.774 114.713 147.736 99.2723C144.963 78.6644 125.911 52.135 125.911 52.135C125.911 52.135 126.008 62.8591 130.574 90.0585C134.159 111.472 141.031 152.235 146.161 167.009C146.154 166.879 146.696 164.777 150.155 163.06Z" fill="#1B1C21"/>
<path d="M148.521 159.921C148.758 159.169 125.883 52.1627 125.883 52.1627C125.883 52.1627 122.294 65.3164 126.821 92.5268C130.406 113.941 140.164 148.565 145.299 163.269C145.306 163.164 148.471 160.028 148.521 159.921Z" fill="#1B1C21"/>
<path d="M131.708 183.114C132.062 181.792 132.383 180.41 132.771 179.146C130.183 161.842 124.925 127.863 121.387 111.219C116.659 88.9671 93.8369 60.4207 93.8369 60.4207C93.8369 60.4207 94.8446 72.0056 102.065 101.363C107.752 124.481 124.829 167.617 131.592 183.495L131.708 183.114Z" fill="#1B1C21"/>
<path d="M131.708 183.114C131.902 182.309 132.102 181.511 132.315 180.718C121.2 135.918 93.8369 60.4207 93.8369 60.4207C93.8369 60.4207 94.8446 72.0056 102.065 101.363C107.752 124.481 124.829 167.617 131.592 183.495L131.708 183.114Z" fill="#1B1C21"/>
<path d="M109.805 205.008C110.094 203.98 110.407 202.972 110.761 201.996C109.323 186.511 109.894 155.384 107.738 140.067C104.86 119.587 84.7946 87.8167 84.7946 87.8167C84.7946 87.8167 85.1773 97.9509 89.7449 125.328C93.3389 146.893 105.03 189.437 109.687 205.289L109.805 205.008Z" fill="#1B1C21"/>
<path d="M109.805 205.008C109.976 204.395 110.157 203.799 110.351 203.205C103.322 161.415 84.7946 87.8167 84.7946 87.8167C84.7946 87.8167 82.3515 100.824 86.9191 128.201C90.5276 149.791 105.026 189.45 109.687 205.289L109.805 205.008Z" fill="#1B1C21"/>
<path d="M93.7692 229.24C93.996 228.102 94.2589 226.989 94.5544 225.912C91.7965 209.747 88.6253 175.491 85.1047 159.631C80.3952 138.419 57.6925 109.111 57.6925 109.111C57.6925 109.111 58.9135 119.768 65.9728 148.032C71.5303 170.287 87.4227 213.502 93.6793 229.549L93.7692 229.24Z" fill="#1B1C21"/>
<path d="M93.7695 229.24C93.9022 228.559 94.0949 227.867 94.2135 227.239C83.3642 184.12 57.688 109.103 57.688 109.103C57.688 109.103 56.7378 122.332 63.7959 150.575C69.3533 172.83 87.4231 213.502 93.6554 229.507L93.7695 229.24Z" fill="#1B1C21"/>
<path d="M79.4331 240.145C79.5053 238.817 79.6172 237.5 79.7603 236.198C74.502 220.157 64.0704 188.55 58.0438 173.153C50.0039 152.623 24.1218 128.247 24.1218 128.247C24.1218 128.247 26.9571 139.124 38.4781 166.11C47.5555 187.372 70.4943 226.25 79.3736 240.526L79.4331 240.145Z" fill="#1B1C21"/>
<path d="M79.4331 240.145C79.4813 239.357 79.5296 238.569 79.6139 237.804C61.9347 196.627 24.1317 128.264 24.1317 128.264C24.1317 128.264 26.9669 139.141 38.4879 166.126C47.5702 187.397 70.5089 226.276 79.3786 240.534L79.4331 240.145Z" fill="#1B1C21"/>
<path d="M63.028 250.332C63.0219 249.217 63.0409 248.088 63.1057 246.999C57.2514 232.811 52.1242 204.136 45.6297 190.485C36.9175 172.199 4.80562 149.643 4.80562 149.643C4.80562 149.643 8.08186 159.191 20.4369 183.302C30.1505 202.296 53.8614 237.631 62.9946 250.642L63.028 250.332Z" fill="#1B1C21"/>
<path d="M63.0278 250.332C63.0224 249.664 63.0302 249 63.0094 248.363C44.0872 211.56 4.77182 149.662 4.77182 149.662C4.77182 149.662 4.87759 162.629 17.2326 186.74C26.9546 205.729 53.8492 237.649 62.9775 250.652L63.0278 250.332Z" fill="#1B1C21"/>
<path d="M138.351 318.369C138.351 318.369 110.291 316.912 94.051 308.676C74.9998 298.959 56.8583 287.554 39.8441 274.598C37.8711 273.389 87.8546 290.234 109.305 301.49C130.754 312.746 138.351 318.369 138.351 318.369Z" fill="#1B1C21"/>
<path d="M40.0326 274.556L39.8693 274.583C70.5473 291.829 138.351 318.369 138.351 318.369C138.351 318.369 129.904 305.521 108.458 294.252C88.2445 283.646 43.5496 275.321 40.0326 274.556Z" fill="#1B1C21"/>
<path d="M-31.8359 193.443C-31.8359 193.443 -6.63258 207.307 5.16773 222.032C18.9793 239.346 31.322 257.783 42.0673 277.15C43.4227 279.13 3.89475 241.52 -11.5546 221.734C-27.004 201.947 -31.8359 193.443 -31.8359 193.443Z" fill="#1B1C21"/>
<path d="M41.908 277.108L42.0668 277.151C20.3994 247.815 -31.8316 193.452 -31.8316 193.452C-31.8316 193.452 -28.9136 208.888 -13.4546 228.691C1.07297 247.287 38.9755 274.876 41.908 277.108Z" fill="#1B1C21"/>
<path d="M224.805 244.479C224.805 244.479 189.749 249.711 162.759 242.728C113.873 230.068 103.897 223.035 101.402 222.239C98.9072 221.443 153.816 225.861 180.954 232.715C208.093 239.568 224.805 244.479 224.805 244.479Z" fill="#1B1C21"/>
<path d="M101.587 222.132L101.402 222.239C140.349 233.391 224.805 244.479 224.805 244.479C224.805 244.479 212.861 237.464 185.747 230.596C160.156 224.079 105.84 221.946 101.587 222.132Z" fill="#1B1C21"/>
<path d="M242.12 100.961C221.28 107.592 183 124.46 172.446 129.423C172.358 129.701 172.213 129.956 172.018 130.173L167.21 133.99C176.987 131.554 220.624 118.214 237.667 113.217C256.717 107.63 277.352 90.9193 277.352 90.9193C277.352 90.9193 267.039 93.0265 242.12 100.961Z" fill="#1B1C21"/>
<path d="M172.054 130.12C209.311 118.763 277.301 90.9487 277.301 90.9487C277.301 90.9487 265.577 91.9475 240.636 99.8833C219.792 106.528 182.983 124.47 172.438 129.428C172.351 129.679 172.221 129.913 172.054 130.12Z" fill="#1B1C21"/>
<path d="M243.973 123.23C219.251 129.105 169.092 144.321 153.188 149.992C152.906 150.49 148.845 155.854 148.494 156.291C163.454 153.614 218.292 140.226 238.634 135.851C262.532 130.642 288.171 113.96 288.171 113.96C288.171 113.96 275.258 115.825 243.973 123.23Z" fill="#1B1C21"/>
<path d="M158.435 150.731C205.531 139.855 288.171 113.96 288.171 113.96C288.171 113.96 275.292 115.805 244.016 123.227C219.294 129.102 175.104 144.003 159.185 149.649C158.964 150.028 158.713 150.39 158.435 150.731Z" fill="#1B1C21"/>
<path d="M286.458 139.193C286.458 139.193 257.02 156.19 232.671 161.469C183.915 172.084 138.226 170.271 135.071 170.616C131.916 170.962 208.368 150.172 240.814 145.048C273.26 139.925 286.458 139.193 286.458 139.193Z" fill="#1B1C21"/>
<path d="M145.834 167.836L145.691 167.918C193.317 161.311 286.439 139.16 286.439 139.16C286.439 139.16 270.026 138.739 237.589 143.88C207.015 148.739 149.975 166.273 145.834 167.836Z" fill="#1B1C21"/>
<path d="M217.688 180.631C195.655 179.541 151.257 181.221 126.377 182.502C125.337 184.109 127.244 184.372 126.012 185.743C126.715 186.825 176.272 191.872 207.535 191.827C235.938 191.845 269.622 184.72 269.622 184.72C269.622 184.72 254.777 182.444 217.688 180.631Z" fill="#1B1C21"/>
<path d="M132.532 185.143C189.4 186.932 269.622 184.72 269.622 184.72C269.622 184.72 254.791 182.469 217.688 180.631C195.655 179.541 159.636 180.8 134.76 182.068C134.074 183.133 133.33 184.16 132.532 185.143Z" fill="#1B1C21"/>
<path d="M198.811 210.07C176.443 206.714 139.502 204.189 113.931 202.838C112.68 204.291 111.309 205.636 109.833 206.859C133.303 211.794 167.96 218.925 186.239 222.015C214.792 226.922 251.348 219.426 251.348 219.426C251.348 219.426 236.5 215.731 198.811 210.07Z" fill="#1B1C21"/>
<path d="M111.277 205.601C169.187 213.263 251.372 219.468 251.372 219.468C251.372 219.468 234.56 211.461 196.877 205.809C174.495 202.449 112.669 201.99 113.931 202.838C113.1 203.81 112.214 204.732 111.277 205.601Z" fill="#1B1C21"/>
<path d="M154.669 259.957C137.614 252.303 108.879 242.065 88.9725 235.264C87.7125 236.136 86.3829 236.904 84.997 237.559C102.592 246.69 117.996 260.296 141.872 269.246C164.198 277.603 194.437 279.155 194.437 279.155C194.437 279.155 183.407 272.854 154.669 259.957Z" fill="#1B1C21"/>
<path d="M86.2986 236.908C130.622 255.881 194.423 279.13 194.423 279.13C194.423 279.13 184.849 267.022 156.121 254.142C139.099 246.469 108.884 242.073 88.9353 235.296C88.0854 235.88 87.2053 236.418 86.2986 236.908Z" fill="#1B1C21"/>
<path d="M120.545 275.811C105.407 267.565 74.7156 252.486 69.0429 250.214C67.9515 251.125 66.7766 251.93 65.534 252.62C81.1911 262.423 92.1849 278.095 111.596 286.536C131.735 295.328 162.639 297.469 162.639 297.469C162.639 297.469 146.044 289.684 120.545 275.811Z" fill="#1B1C21"/>
<path d="M66.7343 251.871C106.089 272.349 162.639 297.469 162.639 297.469C162.639 297.469 154.759 287.694 129.26 273.822C114.118 265.589 86.6915 257.559 69.0009 250.239C68.278 250.827 67.5212 251.372 66.7343 251.871Z" fill="#1B1C21"/>
<path d="M230.313 32.3398C230.313 32.3398 132.581 224.914 17.4869 292.605L15.7652 288.209C15.7652 288.209 130.786 210.261 230.313 32.3398Z" fill="#1B1C21"/>
</g>
</svg>
