<svg width="279" height="364" viewBox="0 0 279 364" fill="none" xmlns="http://www.w3.org/2000/svg">
<g opacity="0.05">
<path d="M83.0787 363.856C83.0787 363.856 75.9984 335.196 80.7279 317.683C85.4574 300.17 102.358 258.742 103.023 256.568C103.689 254.394 97.75 308.296 92.0602 331.83C86.3703 355.365 83.0787 363.856 83.0787 363.856Z" fill="#1B1C21"/>
<path d="M103.07 256.734L103.023 256.568C94.0118 290.367 83.0787 363.856 83.0787 363.856C83.0787 363.856 90.9457 354.618 96.6577 331.061C101.989 308.886 103.004 260.461 103.07 256.734Z" fill="#1B1C21"/>
<path d="M64.2968 298.534C77.3067 283.846 99.0383 249.681 105.204 239.297C105.19 239.156 105.184 239.014 105.187 238.872C105.175 238.632 105.165 238.38 105.177 238.179C105.183 238.032 105.198 237.887 105.224 237.742C98.519 243.851 73.089 266.871 62.2507 278.193C50.0411 290.99 41.6229 321.656 41.6229 321.656C41.6229 321.656 48.625 316.29 64.2968 298.534Z" fill="#1B1C21"/>
<path d="M105.199 238.892C105.187 238.651 105.178 238.4 105.189 238.198L105.207 238.037C81.5155 263.793 41.6312 321.714 41.6312 321.714C41.6312 321.714 51.1374 316.106 66.8288 298.382C79.8478 283.679 101.08 249.567 107.219 239.199C107.205 239.057 105.197 239.035 105.199 238.892Z" fill="#1B1C21"/>
<path d="M106.446 238.858C106.181 240.064 105.883 241.245 105.552 242.402C107.722 259.229 111.976 292.492 114.887 309.005C118.807 331.044 137.764 363.259 137.764 363.259C137.764 363.259 136.946 352.113 130.997 322.771C126.303 299.657 112.141 255.049 106.54 238.5C106.521 238.644 106.489 238.752 106.446 238.858Z" fill="#1B1C21"/>
<path d="M106.446 238.858C106.292 239.572 106.12 240.287 105.93 240.942C115.115 285.777 137.764 363.259 137.764 363.259C137.764 363.259 142.651 345.757 136.698 316.408C132.004 293.294 110.099 243.534 106.553 238.492C106.521 238.644 106.489 238.752 106.446 238.858Z" fill="#1B1C21"/>
<path d="M113.535 205.545C113.342 206.784 113.119 208.006 112.865 209.211C116.025 226.035 122.303 259.23 126.193 275.631C131.428 297.542 152.088 328.348 152.088 328.348C152.088 328.348 150.6 317.164 142.909 288.065C136.844 265.131 120.149 221.394 113.612 205.188L113.535 205.545Z" fill="#1B1C21"/>
<path d="M113.534 205.545C113.423 206.286 113.293 207.011 113.156 207.741C124.974 252.15 152.095 328.361 152.095 328.361C152.095 328.361 154.549 315.996 146.859 286.898C140.8 263.959 115.345 204.932 113.619 205.201L113.534 205.545Z" fill="#1B1C21"/>
<path d="M122.737 178.811C127.074 195.483 133.003 229.128 138.02 245.311C144.733 266.924 167.292 295.779 167.292 295.779C167.292 295.779 164.999 284.627 155.318 256.02C147.695 233.502 133.135 190.614 125.53 174.946C125.533 175.068 125.501 177.25 122.737 178.811Z" fill="#1B1C21"/>
<path d="M123.574 176.905C123.518 177.666 167.305 295.771 167.305 295.771C167.305 295.771 167.854 282.321 158.174 253.73C150.548 231.205 132.886 189.922 125.323 174.264C125.265 174.388 123.596 176.795 123.574 176.905Z" fill="#1B1C21"/>
<path d="M135.008 145.36C134.95 146.733 134.884 148.094 134.778 149.39C140.159 167.498 150.836 203.226 156.939 220.828C165.1 244.342 190.7 276.3 190.7 276.3C190.7 276.3 187.761 264.209 176.102 233.072C166.925 208.548 143.956 162.124 135.085 144.959L135.008 145.36Z" fill="#1B1C21"/>
<path d="M135.008 145.36C134.984 146.173 134.939 146.98 134.879 147.778C152.759 195.303 190.686 276.335 190.686 276.335C190.686 276.335 187.747 264.244 176.088 233.107C166.907 208.577 143.938 162.153 135.071 144.994L135.008 145.36Z" fill="#1B1C21"/>
<path d="M143.257 122.498C143.341 123.812 143.38 125.083 143.396 126.359C150.549 144.79 161.414 182.593 169.243 200.662C179.717 224.793 211.702 258.725 211.702 258.725C211.702 258.725 207.583 246.53 192.888 214.413C181.313 189.119 153.833 140.257 143.289 122.124L143.257 122.498Z" fill="#1B1C21"/>
<path d="M143.257 122.498C143.308 123.274 143.317 124.066 143.369 124.815C165.855 173.862 211.709 258.721 211.709 258.721C211.709 258.721 209.381 242.396 194.7 210.289C183.122 184.989 153.836 140.246 143.302 122.116L143.257 122.498Z" fill="#1B1C21"/>
<path d="M150.828 90.1617C151.06 91.502 151.247 92.8255 151.38 94.1192C160.471 112.268 177.122 151.183 186.849 168.887C199.853 192.538 233.584 222.545 233.584 222.545C233.584 222.545 228.178 210.479 210.094 179.094C195.859 154.385 163.224 107.249 150.801 89.779L150.828 90.1617Z" fill="#1B1C21"/>
<path d="M150.828 90.1617C150.967 90.9646 151.099 91.7714 151.193 92.5301C178.864 140.417 233.584 222.545 233.584 222.545C233.584 222.545 229.283 207.181 211.194 175.772C196.954 151.057 163.226 107.194 150.786 89.753L150.828 90.1617Z" fill="#1B1C21"/>
<path d="M160.676 74.8893C161.108 76.5168 161.499 78.151 161.845 79.7684C173.622 98.1507 196.919 134.388 209.247 151.79C225.72 175.034 262.729 198.924 262.729 198.924C262.729 198.924 255.519 186.307 232.85 155.976C214.991 132.078 175.564 89.8176 160.614 74.4038L160.676 74.8893Z" fill="#1B1C21"/>
<path d="M160.676 74.8893C160.933 75.8598 161.17 76.8253 161.4 77.7946C196.09 124.047 262.723 198.928 262.723 198.928C262.723 198.928 255.513 186.311 232.844 155.98C214.985 132.082 175.553 89.8151 160.607 74.4078L160.676 74.8893Z" fill="#1B1C21"/>
<path d="M169.249 58.0903C169.911 59.1889 170.566 60.2744 171.176 61.36C184.173 71.7559 205.209 96.5563 218.421 106.104C236.077 118.832 274.427 122.351 274.427 122.351C274.427 122.351 266.192 114.987 242.239 98.6818C223.375 85.8322 183.914 65.1668 169.087 57.7626L169.249 58.0903Z" fill="#1B1C21"/>
<path d="M169.249 58.0903C169.641 58.7403 170.033 59.3905 170.425 60.0405C207.006 84.8363 274.427 122.351 274.427 122.351C274.427 122.351 266.62 109.862 242.674 93.5532C223.804 80.7074 183.901 65.1746 169.087 57.7626L169.249 58.0903Z" fill="#1B1C21"/>
<path d="M81.3999 2.33997C81.3999 2.33997 107.843 -2.50808 125.474 2.81481C159.943 13.2306 184.203 26.9743 186.408 27.852C188.613 28.7297 137.011 21.6963 113.603 14.2462C90.1943 6.79598 81.3999 2.33997 81.3999 2.33997Z" fill="#1B1C21"/>
<path d="M186.268 27.928L186.404 27.8457C152.553 15.9406 81.3961 2.33368 81.3961 2.33368C81.3961 2.33368 93.2682 14.5246 116.68 21.9812C138.768 29.0048 182.801 27.9266 186.268 27.928Z" fill="#1B1C21"/>
<path d="M278.424 100.625C278.424 100.625 250.717 91.1762 235.139 77.6918C204.691 51.3345 185.44 27.4074 183.563 25.5435C181.685 23.6796 230.156 55.9487 250.713 74.1775C271.269 92.4063 278.424 100.625 278.424 100.625Z" fill="#1B1C21"/>
<path d="M183.72 25.555L183.563 25.5435C212.89 52.8341 278.424 100.625 278.424 100.625C278.424 100.625 270.848 84.3284 250.299 66.1126C230.925 48.9343 187.14 27.3308 183.72 25.555Z" fill="#1B1C21"/>
<path d="M24.728 103.536C24.728 103.536 55.504 89.6748 82.6964 91.1557C131.948 93.8359 143.419 99.248 145.995 99.6094C148.571 99.9708 96.3095 107.704 69.0302 106.373C41.7509 105.042 24.728 103.536 24.728 103.536Z" fill="#1B1C21"/>
<path d="M145.839 99.7474L145.995 99.609C106.394 96.2772 24.7278 103.535 24.7278 103.535C24.7278 103.535 37.9988 108.492 65.2781 109.823C90.9912 111.07 141.958 100.926 145.839 99.7474Z" fill="#1B1C21"/>
<path d="M54.0015 265.351C71.2011 253.26 101.327 225.901 109.529 218.012C109.521 217.697 109.573 217.383 109.681 217.087C109.681 217.087 112.915 211.822 112.931 211.777C104.642 216.713 68.4554 241.416 54.2621 250.834C38.3854 261.357 24.5975 284.457 24.5975 284.457C24.5975 284.457 33.4302 279.804 54.0015 265.351Z" fill="#1B1C21"/>
<path d="M109.663 217.16C78.774 238.198 24.5975 284.457 24.5975 284.457C24.5975 284.457 35.1556 280.651 55.7515 266.166C72.9512 254.075 101.362 225.871 109.562 217.992C109.55 217.711 109.584 217.43 109.663 217.16Z" fill="#1B1C21"/>
<path d="M45.2545 241.277C66.2943 229.13 107.904 200.839 120.852 190.957C120.957 190.352 122.983 183.467 123.205 182.952C110.174 189.374 63.6565 216.672 46.2363 226.193C25.7281 237.398 7.31871 261.61 7.31871 261.61C7.31871 261.61 18.6566 256.643 45.2545 241.277Z" fill="#1B1C21"/>
<path d="M119.59 188.819C79.3959 211.639 7.29949 261.622 7.29949 261.622C7.29949 261.622 18.6569 256.643 45.2547 241.277C66.2946 229.131 106.237 201.924 119.166 192.027C119.251 191.55 119.452 189.266 119.59 188.819Z" fill="#1B1C21"/>
<path d="M0.873641 233.489C0.873641 233.489 22.7613 208.049 43.6361 196.613C85.4286 173.725 124.344 166.806 127.16 165.684C129.976 164.562 69.7066 203.451 41.2969 216.576C12.8872 229.701 0.873641 233.489 0.873641 233.489Z" fill="#1B1C21"/>
<path d="M122.019 169.653L122.098 169.49C80.1235 187.711 0.873499 233.489 0.873499 233.489C0.873499 233.489 16.1973 230.178 44.6187 217.072C71.4107 204.718 118.682 172.321 122.019 169.653Z" fill="#1B1C21"/>
<path d="M51.4551 172.096C72.1775 168.242 112.762 156.169 135.402 149.041C135.84 147.004 134.024 147.212 134.74 145.371C133.737 144.354 86.2435 150.205 57.287 157.411C31.0158 163.955 2.08179 179.532 2.08179 179.532C2.08179 179.532 16.5218 178.607 51.4551 172.096Z" fill="#1B1C21"/>
<path d="M128.871 147.545C75.6357 158.675 2.08156 179.532 2.08156 179.532C2.08156 179.532 16.5215 178.607 51.4549 172.096C72.1772 168.242 105.153 158.559 127.78 151.438C128.075 150.122 128.44 148.823 128.871 147.545Z" fill="#1B1C21"/>
<path d="M59.6212 135.367C81.402 133.915 116.409 128.202 140.515 123.815C141.199 121.955 142.039 120.156 143.024 118.437C119.739 118.438 85.4061 118.551 67.4691 119.307C39.4794 120.487 8.00402 137.127 8.00402 137.127C8.00402 137.127 22.9461 137.814 59.6212 135.367Z" fill="#1B1C21"/>
<path d="M142.084 120.156C86.0533 125.048 7.99634 137.115 7.99634 137.115C7.99634 137.115 26.1112 142.048 62.7603 139.617C84.5411 138.166 141.934 124.449 140.5 123.806C140.961 122.561 141.489 121.343 142.084 120.156Z" fill="#1B1C21"/>
<path d="M84.7471 70.347C102.95 74.838 132.803 79.4828 153.391 82.3582C154.271 81.1262 155.266 79.9802 156.362 78.9358C137.15 72.9616 118.597 61.5549 93.6274 57.2182C70.3385 53.1707 41.8606 58.4216 41.8606 58.4216C41.8606 58.4216 54.0837 62.7866 84.7471 70.347Z" fill="#1B1C21"/>
<path d="M155.332 79.9912C108.314 69.3429 41.8866 58.4059 41.8866 58.4059C41.8866 58.4059 54.5322 69.5276 85.2074 77.1074C103.416 81.5945 132.751 79.5141 153.391 82.3582C153.989 81.5305 154.638 80.7401 155.332 79.9912Z" fill="#1B1C21"/>
<path d="M111.313 45.0368C127.942 50.6366 161.127 60.2039 167.097 61.3726C167.807 60.1406 168.638 58.983 169.579 57.9173C151.961 50.7511 136.879 36.0289 116.235 31.1931C94.7986 26.1612 65.4839 30.9505 65.4839 30.9505C65.4839 30.9505 83.3328 35.6637 111.313 45.0368Z" fill="#1B1C21"/>
<path d="M168.693 58.992C125.806 45.5514 65.4839 30.9505 65.4839 30.9505C65.4839 30.9505 75.866 39.8915 103.858 49.2842C120.475 54.8645 148.404 57.3903 167.097 61.3726C167.575 60.5437 168.108 59.7484 168.693 58.992Z" fill="#1B1C21"/>
<path d="M86.6116 338.111C86.6116 338.111 116.262 103.808 201.442 2.89315L204.407 7.31003C204.407 7.31003 122.546 119.52 86.6116 338.111Z" fill="#1B1C21"/>
</g>
</svg>
