<svg width="346" height="295" viewBox="0 0 346 295" fill="none" xmlns="http://www.w3.org/2000/svg">
<g opacity="0.05">
<path d="M337.387 61.5389C337.387 61.5389 307.982 58.9188 291.397 66.2676C274.811 73.6164 236.451 96.6455 234.404 97.6353C232.357 98.6252 284.719 84.5237 307.109 75.3062C329.498 66.0886 337.387 61.5389 337.387 61.5389Z" fill="white"/>
<path d="M234.576 97.6566L234.404 97.6353C266.43 83.5677 337.387 61.5389 337.387 61.5389C337.387 61.5389 329.459 70.7245 307.051 79.9672C285.95 88.6224 238.249 97.0222 234.576 97.6566Z" fill="white"/>
<path d="M269.963 52.9538C257.434 68.0544 226.989 94.7492 217.668 102.428C217.527 102.436 217.386 102.452 217.247 102.477C217.007 102.501 216.757 102.53 216.559 102.572C216.416 102.6 216.274 102.638 216.135 102.685C221.148 95.1263 240.014 66.4787 249.548 54.0384C260.33 40.0176 289.351 27.0145 289.351 27.0145C289.351 27.0145 285.118 34.754 269.963 52.9538Z" fill="white"/>
<path d="M217.268 102.486C217.028 102.51 216.778 102.539 216.581 102.581L216.424 102.623C238.26 75.2764 289.409 27.0139 289.409 27.0139C289.409 27.0139 285.319 37.2651 270.199 55.4793C257.658 70.5912 227.188 96.7839 217.879 104.435C217.737 104.442 217.409 102.462 217.268 102.486Z" fill="white"/>
<path d="M217.424 103.723C218.576 103.277 219.698 102.802 220.79 102.298C237.752 101.872 271.274 100.996 288.038 101.351C310.417 101.86 345.149 115.674 345.149 115.674C345.149 115.674 334.009 116.568 304.103 115.17C280.543 114.062 234.295 106.878 217.085 103.871C217.225 103.83 217.327 103.781 217.424 103.723Z" fill="white"/>
<path d="M217.424 103.723C218.106 103.461 218.787 103.183 219.405 102.895C265.117 105.124 345.149 115.674 345.149 115.674C345.149 115.674 328.599 123.176 298.685 121.775C275.125 120.667 222.603 106.619 217.079 103.885C217.225 103.83 217.327 103.781 217.424 103.723Z" fill="white"/>
<path d="M185.585 115.816C186.78 115.437 187.954 115.029 189.106 114.594C206.215 115.148 239.979 116.283 256.782 117.622C279.235 119.449 312.836 135.162 312.836 135.162C312.836 135.162 301.555 135.399 271.624 132.243C248.032 129.752 202.258 119.932 185.244 115.947L185.585 115.816Z" fill="white"/>
<path d="M185.585 115.816C186.3 115.592 186.997 115.353 187.697 115.107C233.39 120.003 312.849 135.167 312.849 135.167C312.849 135.167 301.005 139.48 271.073 136.324C247.478 133.84 185.255 117.699 185.258 115.953L185.585 115.816Z" fill="white"/>
<path d="M160.57 128.994C177.709 130.733 211.865 131.454 228.624 133.94C251.009 137.274 282.97 155.161 282.97 155.161C282.97 155.161 271.6 154.599 241.849 149.4C218.431 145.306 173.823 137.467 157.177 132.344C157.298 132.328 159.45 131.964 160.57 128.994Z" fill="white"/>
<path d="M158.815 130.112C159.558 129.941 282.964 155.175 282.964 155.175C282.964 155.175 269.756 157.773 240.023 152.573C216.597 148.476 173.101 137.326 156.472 132.244C156.585 132.167 158.709 130.15 158.815 130.112Z" fill="white"/>
<path d="M129.386 146.229C130.734 145.962 132.069 145.689 133.333 145.387C152.051 147.939 188.99 153.034 207.318 156.377C231.803 160.851 267.296 181.27 267.296 181.27C267.296 181.27 254.898 180.212 222.345 173.446C196.707 168.121 147.32 152.512 129.001 146.367L129.386 146.229Z" fill="white"/>
<path d="M129.386 146.23C130.185 146.082 130.976 145.914 131.756 145.733C181.454 156.145 267.328 181.251 267.328 181.251C267.328 181.251 254.93 180.193 222.377 173.426C196.733 168.099 147.345 152.49 129.034 146.348L129.386 146.23Z" fill="white"/>
<path d="M108.052 157.874C109.364 157.756 110.625 157.6 111.888 157.421C131.196 161.675 170.215 166.639 189.267 171.617C214.715 178.283 253.134 204.71 253.134 204.71C253.134 204.71 240.453 202.502 206.469 192.884C179.704 185.308 127.217 165.613 107.687 157.962L108.052 157.874Z" fill="white"/>
<path d="M108.052 157.874C108.826 157.806 109.611 157.693 110.358 157.631C162.264 172.361 253.131 204.717 253.131 204.717C253.131 204.717 236.643 204.91 202.67 195.305C175.898 187.726 127.207 165.618 107.681 157.976L108.052 157.874Z" fill="white"/>
<path d="M77.2512 170.295C78.6112 170.319 79.9477 170.301 81.2465 170.235C100.571 176.448 141.572 186.96 160.554 193.869C185.914 203.108 220.721 231.861 220.721 231.861C220.721 231.861 207.971 228.361 174.192 215.283C147.599 204.988 96.031 179.935 76.8689 170.326L77.2512 170.295Z" fill="white"/>
<path d="M77.2512 170.295C78.0658 170.309 78.8833 170.316 79.6475 170.293C131.199 190.327 220.721 231.861 220.721 231.861C220.721 231.861 204.88 229.956 171.077 216.877C144.477 206.579 95.9773 179.946 76.8408 170.315L77.2512 170.295Z" fill="white"/>
<path d="M63.662 182.359C65.3365 182.538 67.0113 182.675 68.6625 182.77C88.6278 191.601 127.998 209.09 147.079 218.616C172.566 231.345 201.829 264.272 201.829 264.272C201.829 264.272 188.258 259.073 154.821 241.303C128.476 227.303 80.689 194.793 63.1728 182.372L63.662 182.359Z" fill="white"/>
<path d="M63.662 182.359C64.6605 182.466 65.6507 182.552 66.6438 182.631C117.652 209.85 201.832 264.265 201.832 264.265C201.832 264.265 188.261 259.066 154.823 241.296C128.479 227.296 80.6849 194.783 63.1757 182.365L63.662 182.359Z" fill="white"/>
<path d="M48.3695 193.398C49.5563 193.885 50.7291 194.366 51.8952 194.803C64.1541 206.06 91.8764 223.061 103.33 234.66C118.605 250.165 127.94 287.527 127.94 287.527C127.94 287.527 119.405 280.514 99.6326 259.332C84.0525 242.652 57.6027 206.81 48.0209 193.287L48.3695 193.398Z" fill="white"/>
<path d="M48.3695 193.398C49.0718 193.686 49.7741 193.974 50.4764 194.262C80.5682 226.626 127.94 287.527 127.94 287.527C127.94 287.527 114.405 281.72 94.6305 260.545C79.0534 243.858 57.6084 206.795 48.0209 193.287L48.3695 193.398Z" fill="white"/>
<path d="M-20.1439 115.094C-20.1439 115.094 -20.8965 141.967 -12.9432 158.579C2.61469 191.052 19.9025 212.929 21.1066 214.974C22.3107 217.018 7.47878 167.096 -3.45912 145.1C-14.397 123.104 -20.1439 115.094 -20.1439 115.094Z" fill="white"/>
<path d="M21.1603 214.823L21.0998 214.971C4.1644 183.335 -20.1507 115.091 -20.1507 115.091C-20.1507 115.091 -6.28965 124.962 4.65528 146.961C14.9698 167.716 20.6295 211.398 21.1603 214.823Z" fill="white"/>
<path d="M107.08 294.795C107.08 294.795 93.5097 268.856 77.8044 255.521C47.1059 229.455 20.5194 214.085 18.3906 212.514C16.2619 210.943 55.5553 253.917 76.7098 271.449C97.8644 288.98 107.08 294.795 107.08 294.795Z" fill="white"/>
<path d="M18.426 212.668L18.3906 212.514C49.8402 237.329 107.08 294.795 107.08 294.795C107.08 294.795 89.8169 289.797 68.6764 272.271C48.7407 255.749 20.7033 215.776 18.426 212.668Z" fill="white"/>
<path d="M71.2091 43.6313C71.2091 43.6313 62.2113 76.1632 67.8278 102.81C77.9987 151.074 85.0994 161.585 85.8499 164.075C86.6004 166.566 86.2608 113.736 80.7791 86.9804C75.2974 60.2245 71.2091 43.6313 71.2091 43.6313Z" fill="white"/>
<path d="M85.9624 163.9L85.8495 164.075C76.5085 125.447 71.2087 43.6311 71.2087 43.6311C71.2087 43.6311 78.1338 55.9895 83.6155 82.7455C88.7752 107.966 86.5348 159.885 85.9624 163.9Z" fill="white"/>
<path d="M235.597 47.8473C226.274 66.6919 203.838 100.643 197.294 109.954C196.982 109.994 196.679 110.093 196.403 110.245C196.403 110.245 191.694 114.245 191.652 114.268C195.264 105.322 214.15 65.7873 221.291 50.322C229.265 33.0245 249.988 15.8703 249.988 15.8703C249.988 15.8703 246.738 25.31 235.597 47.8473Z" fill="white"/>
<path d="M196.473 110.216C212.546 76.4762 249.988 15.8703 249.988 15.8703C249.988 15.8703 247.839 26.8857 236.67 49.4524C227.347 68.297 203.813 100.683 197.28 109.989C197 110.02 196.728 110.097 196.473 110.216Z" fill="white"/>
<path d="M210.47 42.8797C201.679 65.5279 180.074 110.971 172.285 125.276C171.704 125.472 165.209 128.526 164.734 128.823C169.09 114.965 188.963 64.8238 195.712 46.1539C203.654 24.1749 224.77 2.28367 224.77 2.28367C224.77 2.28367 221.593 14.2472 210.47 42.8797Z" fill="white"/>
<path d="M169.981 124.355C186.394 81.1472 224.778 2.26285 224.778 2.26285C224.778 2.26285 221.593 14.2474 210.47 42.8799C201.679 65.5281 180.892 109.157 173.085 123.446C172.627 123.603 170.401 124.15 169.981 124.355Z" fill="white"/>
<path d="M195.994 0.209094C195.994 0.209094 174.196 25.7254 166.082 48.1019C149.845 92.8998 148.952 132.416 148.273 135.37C147.594 138.324 176.821 72.8222 185.454 42.7412C194.086 12.6602 195.994 0.209094 195.994 0.209094Z" fill="white"/>
<path d="M151.41 129.683L151.261 129.786C162.857 85.5208 195.994 0.208989 195.994 0.208989C195.994 0.208989 195.063 15.8586 186.451 45.9483C178.335 74.3127 153.537 125.977 151.41 129.683Z" fill="white"/>
<path d="M143.047 59.5736C142.403 80.6415 136.67 122.594 133.084 146.057C131.137 146.801 131.066 144.974 129.356 145.963C128.198 145.127 126.726 97.2974 129.425 67.58C131.879 40.6176 142.855 9.64383 142.855 9.64383C142.855 9.64383 144.146 24.0557 143.047 59.5736Z" fill="white"/>
<path d="M130.608 139.831C133.477 85.5203 142.855 9.64366 142.855 9.64366C142.855 9.64366 144.146 24.0555 143.047 59.5734C142.403 80.6413 137.87 114.709 134.289 138.158C133.034 138.651 131.805 139.209 130.608 139.831Z" fill="white"/>
<path d="M107.996 73.2535C109.888 95.0005 109.589 130.469 108.934 154.962C107.201 155.923 105.551 157.027 104.003 158.264C100.447 135.252 95.3152 101.304 93.3227 83.4623C90.2145 55.6207 101.852 21.973 101.852 21.973C101.852 21.973 104.813 36.635 107.996 73.2535Z" fill="white"/>
<path d="M105.558 157.072C101.835 100.952 101.839 21.9674 101.839 21.9674C101.839 21.9674 109.481 39.1162 112.676 75.7066C114.568 97.4537 109.777 156.268 108.924 154.95C107.763 155.594 106.64 156.303 105.558 157.072Z" fill="white"/>
<path d="M47.5764 108.015C54.7948 125.318 63.9447 154.112 69.9307 174.019C68.8475 175.077 67.867 176.235 67.0022 177.478C58.1638 159.404 44.0575 142.811 35.958 118.796C28.401 96.3989 29.2409 67.4531 29.2409 67.4531C29.2409 67.4531 35.4216 78.8661 47.5764 108.015Z" fill="white"/>
<path d="M67.8879 176.299C50.1835 131.459 29.2294 67.4812 29.2294 67.4812C29.2294 67.4812 42.1519 78.2798 54.3278 107.438C61.5434 124.748 63.9677 154.056 69.9307 174.019C69.2041 174.737 68.5219 175.498 67.8879 176.299Z" fill="white"/>
<path d="M26.6207 138.135C34.6944 153.713 49.2179 185.049 51.2847 190.77C50.1755 191.659 49.1584 192.657 48.2489 193.75C38.4761 177.434 21.623 164.776 13.691 145.113C5.44418 124.697 5.70011 94.9949 5.70011 94.9949C5.70011 94.9949 13.084 111.915 26.6207 138.135Z" fill="white"/>
<path d="M49.1758 192.711C29.3426 152.379 5.70011 94.9949 5.70011 94.9949C5.70011 94.9949 16.1219 103.89 29.6796 130.119C37.7323 145.689 44.4941 172.904 51.2847 190.77C50.5384 191.368 49.8339 192.017 49.1758 192.711Z" fill="white"/>
<path d="M312.484 68.9622C312.484 68.9622 85.4584 134.05 -1.26333 233.643L3.55455 235.898C3.55455 235.898 101.945 137.86 312.484 68.9622Z" fill="white"/>
</g>
</svg>
