<?xml version="1.0" encoding="iso-8859-1"?>
<!-- Uploaded to: SVG Repo, www.svgrepo.com, Generator: SVG Repo Mixer Tools -->
<!DOCTYPE svg PUBLIC "-//W3C//DTD SVG 1.1//EN" "http://www.w3.org/Graphics/SVG/1.1/DTD/svg11.dtd">
<svg fill="#000000" height="800px" width="800px" version="1.1" id="Capa_1" xmlns="http://www.w3.org/2000/svg" xmlns:xlink="http://www.w3.org/1999/xlink" 
	 viewBox="0 0 401.282 401.282" xml:space="preserve">
<path d="M352.644,348.238c0,4.971-4.029,9-9,9h-19.938c-0.043,0-0.085,0.001-0.128,0.001c-4.971,0-9-4.029-9-9v-71.02
	c0-4.971,4.029-9,9-9s9,4.029,9,9v62.019h11.065C348.615,339.238,352.644,343.267,352.644,348.238z M63.243,76.579
	c0-17.941,14.598-32.538,32.54-32.538c17.942,0,32.539,14.596,32.539,32.538c0,17.942-14.597,32.54-32.539,32.54
	C77.84,109.12,63.243,94.522,63.243,76.579z M81.243,76.579c0,8.018,6.522,14.54,14.54,14.54c8.017,0,14.539-6.522,14.539-14.54
	c0-8.016-6.522-14.538-14.539-14.538C87.765,62.042,81.243,68.563,81.243,76.579z M280.83,170.67c-4.971,0-9,4.029-9,9v65.657
	c0,0,0,0,0,0.001c0,5.016,4.106,9.044,9.135,8.999h49.068c0.045,0,0.09,0.001,0.135,0.001c4.971,0,9-4.029,9-9V179.67
	c0-4.971-4.029-9-9-9s-9,4.029-9,9v56.657H289.83V179.67C289.83,174.7,285.8,170.67,280.83,170.67z M168.103,221.789
	c0-17.942,14.598-32.539,32.541-32.539c17.941,0,32.538,14.597,32.538,32.539c0,17.942-14.597,32.54-32.538,32.54
	C182.7,254.329,168.103,239.731,168.103,221.789z M186.103,221.789c0,8.017,6.523,14.54,14.541,14.54
	c8.017,0,14.538-6.522,14.538-14.54c0-8.017-6.521-14.539-14.538-14.539C192.626,207.25,186.103,213.772,186.103,221.789z
	 M400.62,241.945l-29.776-73.394c-7.865-19.382-22.018-45.149-53.973-45.149h-22.741c-31.954,0-46.105,25.768-53.97,45.149
	l-6.074,14.971c-1.868,4.606,0.351,9.855,4.956,11.724c4.604,1.869,9.854-0.35,11.724-4.956l6.074-14.971
	c9.646-23.773,20.799-33.917,37.29-33.917h22.741c16.492,0,27.646,10.144,37.293,33.917l29.776,73.393
	c1.419,3.498,4.787,5.619,8.343,5.619c1.127,0,2.272-0.213,3.381-0.663C400.269,251.799,402.488,246.55,400.62,241.945z
	 M272.962,76.579c0-17.941,14.596-32.538,32.537-32.538c17.942,0,32.54,14.596,32.54,32.538c0,17.942-14.598,32.54-32.54,32.54
	C287.558,109.12,272.962,94.522,272.962,76.579z M290.962,76.579c0,8.018,6.521,14.54,14.537,14.54c8.018,0,14.54-6.522,14.54-14.54
	c0-8.016-6.522-14.538-14.54-14.538C297.484,62.042,290.962,68.563,290.962,76.579z M162.241,195.247
	c4.606-1.868,6.826-7.117,4.958-11.723l-6.073-14.974c-7.868-19.381-22.023-45.148-53.973-45.148H84.411
	c-31.954,0-46.105,25.767-53.97,45.149L0.663,241.944c-1.869,4.606,0.35,9.854,4.956,11.724c1.108,0.45,2.254,0.663,3.381,0.663
	c3.555,0,6.923-2.121,8.343-5.619L47.12,175.32c9.647-23.774,20.8-33.917,37.291-33.917h22.742c16.49,0,27.644,10.144,37.293,33.916
	l6.072,14.971C152.387,194.896,157.634,197.114,162.241,195.247z M287.418,268.22c-4.971,0-9,4.029-9,9v62.019h-11.063
	c-4.971,0-9,4.029-9,9s4.029,9,9,9h19.936c0.043,0,0.085,0.001,0.128,0.001c4.971,0,9-4.029,9-9v-0.001V277.22
	C296.418,272.249,292.389,268.22,287.418,268.22z M86.7,295.231c0-4.971-4.029-9-9-9s-9,4.029-9,9v44.007H57.637
	c-4.971,0-9,4.029-9,9s4.029,9,9,9h19.935c0.043,0,0.085,0.001,0.128,0.001c1.398,0,2.723-0.319,3.903-0.888
	c3.017-1.454,5.099-4.54,5.099-8.113c0-0.062,0-0.125-0.002-0.186V295.231z M237.164,265.569h-36.29
	c-0.152-0.004-0.308-0.004-0.461,0h-36.294c-4.971,0-9,4.029-9,9s4.029,9,9,9h27.525v8.589c0,4.971,4.029,9,9,9s9-4.029,9-9v-8.589
	h27.521c4.971,0,9-4.029,9-9S242.134,265.569,237.164,265.569z M235.101,339.239h-9.483v-18.61c0-5.033-4.148-9.109-9.187-8.998
	h-31.578c-5.05-0.105-9.187,3.965-9.187,8.998v18.61h-9.481c-4.971,0-9,4.029-9,9s4.029,9,9,9h18.347
	c0.93,0.012,1.832-0.114,2.68-0.364c3.733-1.097,6.458-4.548,6.458-8.636c0-0.083-0.001-0.167-0.003-0.25v-18.359h13.951v18.609
	c0,4.971,4.029,9,9,9c0.045,0,0.09,0,0.135-0.001h18.349c4.971,0,9-4.029,9-9S240.072,339.239,235.101,339.239z M86.702,199.344
	V179.67c0-4.971-4.029-9-9-9s-9,4.029-9,9v18.407l-18.033,62.807c-0.151,0.483-0.263,0.982-0.332,1.497
	c-0.145,1.07-0.093,2.133,0.132,3.146c0.254,1.154,0.73,2.223,1.38,3.164c0.894,1.297,2.132,2.368,3.629,3.058
	c0.002,0.001,0.009,0.001,0.007,0.003c0.667,0.308,1.378,0.537,2.122,0.675c0.554,0.104,1.107,0.154,1.655,0.154
	c0.081,0,0.162-0.001,0.243-0.003h72.553c0.614,0.016,1.24-0.03,1.866-0.146c0.762-0.139,1.491-0.373,2.173-0.691
	c1.489-0.689,2.72-1.755,3.611-3.047c0.652-0.942,1.129-2.015,1.384-3.171c0.225-1.011,0.277-2.072,0.132-3.14
	c-0.068-0.516-0.18-1.017-0.332-1.501l-18.031-62.806V179.67c0-4.971-4.029-9-9-9s-9,4.029-9,9v19.673
	c0,0.84,0.118,1.676,0.35,2.483l15.145,52.752h-49.15l15.146-52.751C86.584,201.02,86.702,200.184,86.702,199.344z M133.927,339.238
	h-11.065v-44.007c0-4.971-4.029-9-9-9s-9,4.029-9,9v53.008c0,4.971,4.029,9,9,9c0.043,0,0.085,0,0.128-0.001h19.937
	c4.971,0,9-4.029,9-9S138.898,339.238,133.927,339.238z"/>
</svg>