<svg width="254" height="26" viewBox="0 0 254 26" fill="none" xmlns="http://www.w3.org/2000/svg">
<path d="M3.75928 9.34328L7.51855 13.014L3.75928 16.6847L0 13.014L3.75928 9.34328Z" fill="white"/>
<path d="M8.88312 4.61785L12.6424 8.28853L8.88312 11.9592L5.12384 8.28853L8.88312 4.61785Z" fill="white"/>
<path d="M8.88312 14.1306L12.6424 17.8012L8.88312 21.4719L5.12384 17.8012L8.88312 14.1306Z" fill="white"/>
<path d="M34.392 0.646409C37.4079 0.646409 39.6881 1.29282 41.2328 2.58563C42.7775 3.87845 43.5498 5.62615 43.5498 7.82873C43.5498 10.0313 42.5078 11.7551 40.4237 13C38.6093 14.1013 36.1819 14.6519 33.1416 14.6519H30.0522V24.2762H33.4726V25.3895H23.2482V24.2762H26.7054V1.75967H23.2482V0.646409H34.392ZM37.7021 12.3536C39.0997 11.3241 39.7739 9.77993 39.7249 7.72099C39.6759 5.66206 39.1855 4.15378 38.2538 3.19613C37.3466 2.23849 35.9122 1.75967 33.9507 1.75967H30.0522V13.6823H33.2151C35.054 13.6823 36.5497 13.2394 37.7021 12.3536Z" fill="white"/>
<path d="M56.6234 24.2762V25.3895H46.1048V24.2762H49.5619V1.75967H46.1048V0.646409H56.6234V1.75967H53.203V24.2762H56.6234Z" fill="white"/>
<path d="M84.3132 0.646409V1.75967C82.8911 1.75967 82.0574 1.87937 81.8122 2.11878C81.1747 2.74125 80.856 3.66298 80.856 4.88398L80.9295 26H80.0836L64.5264 2.58563V21.1878C64.5264 22.4328 64.8329 23.3425 65.4459 23.9171C65.6911 24.1565 66.5247 24.2762 67.9468 24.2762V25.3895H59.8188V24.2762C61.1918 24.2762 62.001 24.1685 62.2462 23.953C62.9327 23.3785 63.276 22.4567 63.276 21.1878V2.58563C63.2024 2.03499 62.8346 1.75967 62.1726 1.75967H60.113V0.646409H67.4687L79.6423 19.1409V4.88398C79.6423 3.66298 79.299 2.72928 78.6125 2.08287C78.3428 1.8674 77.5337 1.75967 76.1851 1.75967V0.646409H84.3132Z" fill="white"/>
<path d="M107.719 16.8066H108.896L108.491 25.3895H87.123V24.2762H90.5801V1.75967H87.123V0.646409H107.903L107.976 7.93646H106.836C106.665 5.85359 106.076 4.33333 105.071 3.37569C104.066 2.39411 102.423 1.87937 100.142 1.83149L93.8534 1.75967V12.174H98.3403C99.3947 12.174 100.179 11.8748 100.694 11.2762C101.258 10.5101 101.54 9.39687 101.54 7.93646H102.68V17.884H101.54C101.54 16.4715 101.234 15.3702 100.621 14.5801C100.032 13.7901 99.2721 13.395 98.3403 13.395H93.8534V24.2762L100.731 24.1685C101.417 24.1685 102.239 23.9889 103.195 23.6298C104.176 23.2707 104.899 22.8637 105.365 22.4088C106.836 21.0681 107.621 19.2007 107.719 16.8066Z" fill="white"/>
<path d="M150.264 24.2762V25.3895H140.04V24.2762H143.497V13H132.206V24.2762H135.626V25.3895H125.476V24.2762H128.933V1.75967H125.476V0.646409H135.626V1.75967H132.206V11.7431H143.497V1.75967H140.04V0.646409H150.264V1.75967H146.844V24.2762H150.264Z" fill="white"/>
<path d="M164.049 24.2762V25.3895H153.531V24.2762H156.988V1.75967H153.531V0.646409H164.049V1.75967H160.629V24.2762H164.049Z" fill="white"/>
<path d="M186.663 16.8066H187.84L187.362 25.3895H167.318V24.2762H170.775V1.75967H167.318V0.646409H177.506V1.75967H174.049V24.2762L179.676 24.1685C180.338 24.1685 181.159 23.9889 182.14 23.6298C183.121 23.2707 183.844 22.8637 184.31 22.4088C185.781 21.0681 186.565 19.2007 186.663 16.8066Z" fill="white"/>
<path d="M210.368 16.8066H211.545L211.067 25.3895H191.023V24.2762H194.48V1.75967H191.023V0.646409H201.21V1.75967H197.753V24.2762L203.38 24.1685C204.042 24.1685 204.864 23.9889 205.845 23.6298C206.825 23.2707 207.549 22.8637 208.014 22.4088C209.486 21.0681 210.27 19.2007 210.368 16.8066Z" fill="white"/>
<path d="M231.168 17.4889C231.168 20.2661 230.027 22.3849 227.747 23.8453C225.786 25.1142 223.322 25.7486 220.355 25.7486C218.565 25.7486 216.567 25.3416 214.36 24.5276L214.397 18.8177H215.5C215.647 20.709 216.223 22.0737 217.229 22.9116C217.694 23.2947 218.381 23.6179 219.288 23.8812C220.195 24.1446 221.017 24.2643 221.752 24.2403C223.444 24.2164 224.928 23.7735 226.202 22.9116C227.453 22.0258 228.103 20.8407 228.152 19.3564C228.152 17.8002 227.588 16.5552 226.46 15.6215C225.357 14.6878 223.824 14.1133 221.863 13.8978C216.64 13.2753 214.029 11.1446 214.029 7.50552C214.029 4.96777 215.022 3.04051 217.008 1.72376C218.7 0.574585 220.759 0 223.187 0C223.898 0 224.744 0.107735 225.724 0.323205C226.705 0.514732 227.33 0.610496 227.6 0.610496C227.894 0.610496 228.09 0.430938 228.189 0.0718223H229.218V6.5H228.115C227.943 4.72836 227.392 3.44751 226.46 2.65746C225.553 1.8674 224.192 1.48435 222.378 1.50829C218.798 1.55617 217.032 3.12431 217.081 6.21271C217.131 8.96593 219.092 10.5341 222.966 10.9171C228.434 11.4917 231.168 13.6823 231.168 17.4889Z" fill="white"/>
<path d="M250.241 9.34328L246.481 13.014L250.241 16.6847L254 13.014L250.241 9.34328Z" fill="white"/>
<path d="M245.117 4.61785L241.358 8.28853L245.117 11.9592L248.876 8.28853L245.117 4.61785Z" fill="white"/>
<path d="M245.117 14.1306L241.358 17.8012L245.117 21.4719L248.876 17.8012L245.117 14.1306Z" fill="white"/>
</svg>
