<?xml version="1.0" encoding="UTF-8"?>
<!DOCTYPE svg PUBLIC "-//W3C//DTD SVG 1.1//EN" "http://www.w3.org/Graphics/SVG/1.1/DTD/svg11.dtd">
<!-- Creator: CorelDRAW -->
<svg xmlns="http://www.w3.org/2000/svg" xml:space="preserve" width="1.70666in" height="1.70666in" version="1.1" style="shape-rendering:geometricPrecision; text-rendering:geometricPrecision; image-rendering:optimizeQuality; fill-rule:evenodd; clip-rule:evenodd"
viewBox="0 0 1707 1707"
 xmlns:xlink="http://www.w3.org/1999/xlink">
 <defs>
  <style type="text/css">
   <![CDATA[
    .fil0 {fill:black}
   ]]>
  </style>
 </defs>
 <g id="Layer_x0020_1">
  <metadata id="CorelCorpID_0Corel-Layer"/>
  <path class="fil0" d="M1314 835l-146 0c-23,0 -20,25 -20,40l234 0c0,-46 -5,-41 -68,-40zm202 872l-1326 0c-14,0 -25,-12 -25,-26l0 -620 -66 0c-14,0 -26,-12 -26,-26l0 -134c0,-25 23,-26 42,-26 -8,-23 -4,-107 -4,-135 0,-162 142,-182 251,-221l0 -63c-42,-29 -74,-73 -87,-125 -15,-13 -23,-32 -23,-52 0,-30 17,-40 17,-50l0 -15c0,-118 96,-214 214,-214 118,0 215,96 215,214l-1 20c12,12 18,28 18,45 0,20 -9,39 -24,52 -13,52 -45,96 -87,125l0 63c107,38 252,58 252,221 0,28 4,112 -4,135l244 0 0 -20c0,-39 32,-72 72,-72l22 0 0 -41 -176 0c-44,0 -80,-36 -80,-80l0 -266c0,-44 36,-80 80,-80l502 0c44,0 80,36 80,80l0 266c0,44 -36,80 -80,80l-176 0 0 41 22 0c40,0 72,33 72,72l0 20 173 0c15,0 26,12 26,26l0 134c0,14 -11,26 -26,26l-65 0 0 620c0,14 -12,26 -26,26zm-1300 -52l1274 0 0 -594 -1274 0 0 594zm-34 -780l55 0 0 -105c0,-33 52,-33 52,0l0 105 107 0 40 -145 -25 -43 -77 -104c-191,60 -172,99 -172,268 0,13 9,24 20,24zm267 0l74 0 -33 -123 -7 0 -34 123zm128 0l100 0 0 -105c0,-33 52,-33 52,0l0 105c90,0 75,18 75,-135 0,-101 -80,-128 -166,-156l-76 103 -25 43 40 145zm-452 134l1457 0 0 -82 -1457 0 0 82zm1064 181l-671 0c-33,0 -33,-51 0,-51l671 0c33,0 33,51 0,51zm0 194l-671 0c-33,0 -33,-52 0,-52l671 0c33,0 33,52 0,52zm0 193l-671 0c-33,0 -33,-51 0,-51l671 0c33,0 33,51 0,51zm-782 -1022c-6,6 -14,8 -21,11l45 61 21 -31 -45 -41zm179 12l-23 -9 -43 38 21 32 45 -61zm-186 -148c55,29 112,31 166,0 39,-23 67,-61 77,-108 3,-15 20,-17 20,-32 0,-8 -6,-12 -11,-17 -79,18 -176,-2 -229,-64 -29,26 -64,44 -103,52 -2,12 -17,17 -17,29 0,15 18,17 21,32 9,46 38,85 76,108zm14 63l0 10 72 65 66 -59 0 -16c-43,15 -94,15 -138,0zm80 218l16 -27 -24 -35 -23 35 15 27 16 0zm-172 -503c73,-22 77,-69 106,-66 9,1 16,6 21,14 33,62 128,84 197,65 -3,-88 -75,-158 -163,-158 -83,0 -153,63 -161,145zm1018 493l176 0c16,0 28,-13 28,-28l0 -266c0,-16 -12,-29 -28,-29l-502 0c-15,0 -28,13 -28,29l0 266c0,15 13,28 28,28l176 0 0 -54c0,-29 24,-53 53,-53l44 0c29,0 53,24 53,53l0 54zm-98 93l46 0 0 -147c0,-2 -46,-2 -46,0l0 147z"/>
 </g>
</svg>
