<svg width="25" height="32" viewBox="0 0 25 32" fill="none" xmlns="http://www.w3.org/2000/svg">
<g filter="url(#filter0_d_378_3044)">
<g clip-path="url(#clip0_378_3044)">
<path d="M12.5 10.6094C15.4531 10.6094 17.8906 13.0469 17.8906 16C17.8906 19 15.4531 21.3906 12.5 21.3906C9.5 21.3906 7.10938 19 7.10938 16C7.10938 13.0469 9.5 10.6094 12.5 10.6094ZM12.5 19.5156C14.4219 19.5156 15.9688 17.9688 15.9688 16C15.9688 14.0781 14.4219 12.5312 12.5 12.5312C10.5312 12.5312 8.98438 14.0781 8.98438 16C8.98438 17.9688 10.5781 19.5156 12.5 19.5156ZM19.3438 10.4219C19.3438 9.71875 18.7812 9.15625 18.0781 9.15625C17.375 9.15625 16.8125 9.71875 16.8125 10.4219C16.8125 11.125 17.375 11.6875 18.0781 11.6875C18.7812 11.6875 19.3438 11.125 19.3438 10.4219ZM22.9062 11.6875C23 13.4219 23 18.625 22.9062 20.3594C22.8125 22.0469 22.4375 23.5 21.2188 24.7656C20 25.9844 18.5 26.3594 16.8125 26.4531C15.0781 26.5469 9.875 26.5469 8.14062 26.4531C6.45312 26.3594 5 25.9844 3.73438 24.7656C2.51562 23.5 2.14062 22.0469 2.04688 20.3594C1.95312 18.625 1.95312 13.4219 2.04688 11.6875C2.14062 10 2.51562 8.5 3.73438 7.28125C5 6.0625 6.45312 5.6875 8.14062 5.59375C9.875 5.5 15.0781 5.5 16.8125 5.59375C18.5 5.6875 20 6.0625 21.2188 7.28125C22.4375 8.5 22.8125 10 22.9062 11.6875ZM20.6562 22.1875C21.2188 20.8281 21.0781 17.5469 21.0781 16C21.0781 14.5 21.2188 11.2188 20.6562 9.8125C20.2812 8.92188 19.5781 8.17188 18.6875 7.84375C17.2812 7.28125 14 7.42188 12.5 7.42188C10.9531 7.42188 7.67188 7.28125 6.3125 7.84375C5.375 8.21875 4.67188 8.92188 4.29688 9.8125C3.73438 11.2188 3.875 14.5 3.875 16C3.875 17.5469 3.73438 20.8281 4.29688 22.1875C4.67188 23.125 5.375 23.8281 6.3125 24.2031C7.67188 24.7656 10.9531 24.625 12.5 24.625C14 24.625 17.2812 24.7656 18.6875 24.2031C19.5781 23.8281 20.3281 23.125 20.6562 22.1875Z" fill="white"/>
</g>
</g>
<defs>
<filter id="filter0_d_378_3044" x="0" y="-1" width="25" height="36" filterUnits="userSpaceOnUse" color-interpolation-filters="sRGB">
<feFlood flood-opacity="0" result="BackgroundImageFix"/>
<feColorMatrix in="SourceAlpha" type="matrix" values="0 0 0 0 0 0 0 0 0 0 0 0 0 0 0 0 0 0 127 0" result="hardAlpha"/>
<feOffset dy="1"/>
<feGaussianBlur stdDeviation="1"/>
<feColorMatrix type="matrix" values="0 0 0 0 0.0627451 0 0 0 0 0.0941176 0 0 0 0 0.156863 0 0 0 0.05 0"/>
<feBlend mode="normal" in2="BackgroundImageFix" result="effect1_dropShadow_378_3044"/>
<feBlend mode="normal" in="SourceGraphic" in2="effect1_dropShadow_378_3044" result="shape"/>
</filter>
<clipPath id="clip0_378_3044">
<rect x="2" width="21" height="32" rx="10.5" fill="white"/>
</clipPath>
</defs>
</svg>
