<svg width="17" height="23" viewBox="0 0 17 23" fill="none" xmlns="http://www.w3.org/2000/svg">
<mask id="path-1-outside-1_511_743" maskUnits="userSpaceOnUse" x="0" y="0" width="17" height="23" fill="black">
<rect fill="white" width="17" height="23"/>
<path d="M7.5625 21.0312C5.53125 18.4922 1 12.4375 1 9C1 4.85938 4.32031 1.5 8.5 1.5C12.6406 1.5 16 4.85938 16 9C16 12.4375 11.4297 18.4922 9.39844 21.0312C8.92969 21.6172 8.03125 21.6172 7.5625 21.0312ZM8.5 11.5C9.86719 11.5 11 10.4062 11 9C11 7.63281 9.86719 6.5 8.5 6.5C7.09375 6.5 6 7.63281 6 9C6 10.4062 7.09375 11.5 8.5 11.5Z"/>
</mask>
<path d="M7.5625 21.0312C5.53125 18.4922 1 12.4375 1 9C1 4.85938 4.32031 1.5 8.5 1.5C12.6406 1.5 16 4.85938 16 9C16 12.4375 11.4297 18.4922 9.39844 21.0312C8.92969 21.6172 8.03125 21.6172 7.5625 21.0312ZM8.5 11.5C9.86719 11.5 11 10.4062 11 9C11 7.63281 9.86719 6.5 8.5 6.5C7.09375 6.5 6 7.63281 6 9C6 10.4062 7.09375 11.5 8.5 11.5Z" fill="white"/>
<path d="M8.34337 20.4066C7.33906 19.1512 5.72743 17.0395 4.37195 14.8297C3.69404 13.7245 3.09202 12.6138 2.6622 11.5869C2.22575 10.5442 2 9.66486 2 9H0C0 10.0539 0.340658 11.2204 0.817297 12.3591C1.30056 13.5137 1.9583 14.7198 2.66712 15.8754C4.08507 18.1871 5.75469 20.3723 6.78163 21.6559L8.34337 20.4066ZM2 9C2 5.40826 4.87599 2.5 8.5 2.5V0.5C3.76463 0.5 0 4.31049 0 9H2ZM8.5 2.5C12.0883 2.5 15 5.41166 15 9H17C17 4.30709 13.1929 0.5 8.5 0.5V2.5ZM15 9C15 9.66323 14.7728 10.5415 14.3328 11.5843C13.8996 12.611 13.2929 13.7217 12.6102 14.827C11.2449 17.0371 9.6235 19.1491 8.61757 20.4066L10.1793 21.6559C11.2046 20.3743 12.884 18.1894 14.3117 15.8781C15.0254 14.7227 15.6883 13.5165 16.1755 12.3618C16.6559 11.2231 17 10.0555 17 9H15ZM8.61757 20.4066C8.54914 20.4921 8.41179 20.4921 8.34337 20.4066L6.78163 21.6559C7.65071 22.7423 9.31023 22.7423 10.1793 21.6559L8.61757 20.4066ZM8.5 12.5C10.4093 12.5 12 10.9687 12 9H10C10 9.8438 9.32512 10.5 8.5 10.5V12.5ZM12 9C12 7.08053 10.4195 5.5 8.5 5.5V7.5C9.3149 7.5 10 8.1851 10 9H12ZM8.5 5.5C6.5313 5.5 5 7.09075 5 9H7C7 8.17488 7.6562 7.5 8.5 7.5V5.5ZM5 9C5 10.9585 6.54147 12.5 8.5 12.5V10.5C7.64603 10.5 7 9.85397 7 9H5Z" fill="#472C10" mask="url(#path-1-outside-1_511_743)"/>
</svg>
