<svg width="30" height="28" viewBox="0 0 30 28" fill="none" xmlns="http://www.w3.org/2000/svg">
<path d="M23.3711 1.31924L23.7537 1.59474L26.7537 3.75502L27.1719 4.05615L26.8583 4.46505C26.3727 5.09826 25.7733 6.09581 25.0595 7.4765L25.056 7.48341L25.0559 7.48338C24.3549 8.78921 23.7512 10.2509 23.2466 11.8705L23.2452 11.8748C22.8181 13.2028 22.5953 14.4859 22.572 15.7259C22.6775 15.7099 22.7773 15.7001 22.8708 15.6974C23.1437 15.6456 23.4177 15.6195 23.6923 15.6195C25.1815 15.6195 26.5175 16.064 27.6822 16.952C28.9296 17.8493 29.5 19.3161 29.5 21.2115C29.5 22.8765 28.9427 24.3551 27.84 25.6274M23.3711 1.31924L27.4615 25.3006M23.3711 1.31924L23.0736 1.68499C21.466 3.66156 20.1144 5.66806 19.021 7.70474L19.0188 7.70893C17.979 9.69039 17.1956 11.6266 16.672 13.5171C16.1491 15.4052 15.8846 17.1991 15.8846 18.897C15.8846 21.3001 16.4985 23.3636 17.7519 25.0579L17.7518 25.058L17.7566 25.0642C19.0533 26.7607 20.9897 27.5508 23.467 27.498M23.3711 1.31924L23.4615 26.998M27.84 25.6274C27.8398 25.6277 27.8395 25.6279 27.8393 25.6282L27.4615 25.3006M27.84 25.6274C27.8401 25.6273 27.8403 25.6271 27.8404 25.6269L27.4615 25.3006M27.84 25.6274C26.7585 26.8831 25.2805 27.4968 23.467 27.498M27.4615 25.3006C26.4872 26.4322 25.1538 26.998 23.4615 26.998M23.467 27.498C23.4688 27.498 23.4706 27.4979 23.4724 27.4979L23.4615 26.998M23.467 27.498C23.4652 27.498 23.4634 27.498 23.4615 27.498V26.998M26.4615 4.16077C26.3673 4.28364 26.2696 4.41867 26.1684 4.56585L26.1694 4.56652L26.4615 4.16077ZM26.4615 4.16077L26.0648 3.85648C26.0617 3.86046 26.0587 3.86446 26.0556 3.86846L26.4615 4.16077ZM8.3691 1.59474L7.98652 1.31924L7.68903 1.68499C6.08137 3.66156 4.72981 5.66806 3.63639 7.70475L3.63637 7.70474L3.63418 7.70893C2.59441 9.69039 1.81096 11.6266 1.28737 13.5171C0.764469 15.4052 0.5 17.1991 0.5 18.897C0.5 21.3001 1.11391 23.3636 2.36726 25.0579L2.36721 25.058L2.37199 25.0642C3.66873 26.7607 5.60504 27.5508 8.08243 27.498C9.89586 27.4968 11.3738 26.8831 12.4553 25.6274C13.5581 24.3552 14.1154 22.8765 14.1154 21.2115C14.1154 19.3161 13.545 17.8493 12.2975 16.952C11.1328 16.0639 9.79689 15.6195 8.30769 15.6195C8.03306 15.6195 7.75909 15.6456 7.48618 15.6974C7.39272 15.7001 7.29285 15.7099 7.18736 15.7259C7.21066 14.4859 7.4335 13.2028 7.8606 11.8748L7.86062 11.8748L7.86198 11.8705C8.36659 10.2509 8.97026 8.78921 9.6713 7.48338L9.67135 7.48341L9.67493 7.4765C10.3887 6.09581 10.988 5.09826 11.4737 4.46505L11.7873 4.05615L11.3691 3.75502L8.3691 1.59474ZM22.0769 16.3509C22.2632 16.2975 22.4288 16.258 22.5736 16.2323L22.0769 16.3509Z" fill="white" stroke="#B7A18B"/>
</svg>
