<svg width="23" height="21" viewBox="0 0 23 21" fill="none" xmlns="http://www.w3.org/2000/svg">
<path d="M6.37305 1.59425L5.99046 1.31875L5.69298 1.6845C4.5337 3.10979 3.55821 4.55776 2.76854 6.02866L2.76852 6.02865L2.76633 6.03284C2.01584 7.46302 1.44935 8.86243 1.07041 10.2307C0.692148 11.5965 0.5 12.8972 0.5 14.1308C0.5 15.8811 0.947571 17.3933 1.86824 18.6379L1.86819 18.638L1.87298 18.6442C2.83703 19.9054 4.2743 20.4852 6.08638 20.4469C7.42253 20.4457 8.52443 19.9916 9.33108 19.0551C10.1446 18.1165 10.5572 17.0223 10.5572 15.7925C10.5572 14.4048 10.1386 13.3007 9.19499 12.6211C8.33403 11.9651 7.34523 11.6367 6.24655 11.6367C6.04403 11.6367 5.84214 11.6556 5.64127 11.6931C5.62368 11.6937 5.60585 11.6947 5.5878 11.6959C5.61943 10.8706 5.77547 10.0166 6.05981 9.13245L6.05983 9.13246L6.06119 9.1281C6.42116 7.97276 6.85126 6.93178 7.3498 6.00314L7.34985 6.00317L7.35343 5.99626C7.86471 5.00727 8.29047 4.29987 8.63147 3.85525L8.94507 3.44635L8.52689 3.14522L6.37305 1.59425ZM17.4184 1.59425L17.0358 1.31875L16.7383 1.6845C15.5791 3.10979 14.6036 4.55776 13.8139 6.02866L13.8139 6.02865L13.8117 6.03284C13.0612 7.46302 12.4947 8.86243 12.1158 10.2307C11.7375 11.5965 11.5454 12.8972 11.5454 14.1308C11.5454 15.8811 11.9929 17.3933 12.9136 18.6379L12.9136 18.638L12.9183 18.6442C13.8824 19.9054 15.3197 20.4852 17.1317 20.4469C18.4679 20.4457 19.5698 19.9916 20.3764 19.0551C21.1899 18.1165 21.6026 17.0223 21.6026 15.7925C21.6026 14.4048 21.184 13.3007 20.2404 12.6211C19.3794 11.9651 18.3906 11.6367 17.2919 11.6367C17.0894 11.6367 16.8875 11.6556 16.6866 11.6931C16.669 11.6937 16.6512 11.6947 16.6332 11.6959C16.6648 10.8706 16.8208 10.0166 17.1052 9.13246L17.1066 9.1281C17.4665 7.97276 17.8966 6.93178 18.3952 6.00314L18.3952 6.00317L18.3988 5.99626C18.9101 5.00727 19.3358 4.29987 19.6768 3.85525L19.9904 3.44635L19.5723 3.14522L17.4184 1.59425Z" fill="white" stroke="#B7A18B"/>
</svg>
