<svg width="28" height="32" viewBox="0 0 28 32" fill="none" xmlns="http://www.w3.org/2000/svg">
<g filter="url(#filter0_d_378_3050)">
<g clip-path="url(#clip0_378_3050)">
<path d="M23.5156 11.125C23.5156 11.3594 23.5156 11.5469 23.5156 11.7812C23.5156 18.2969 18.5938 25.75 9.54688 25.75C6.73438 25.75 4.15625 24.9531 2 23.5469C2.375 23.5938 2.75 23.6406 3.17188 23.6406C5.46875 23.6406 7.57812 22.8438 9.26562 21.5312C7.10938 21.4844 5.28125 20.0781 4.67188 18.1094C5 18.1562 5.28125 18.2031 5.60938 18.2031C6.03125 18.2031 6.5 18.1094 6.875 18.0156C4.625 17.5469 2.9375 15.5781 2.9375 13.1875V13.1406C3.59375 13.5156 4.39062 13.7031 5.1875 13.75C3.82812 12.8594 2.98438 11.3594 2.98438 9.67188C2.98438 8.73438 3.21875 7.89062 3.64062 7.1875C6.07812 10.1406 9.73438 12.1094 13.8125 12.3438C13.7188 11.9688 13.6719 11.5938 13.6719 11.2188C13.6719 8.5 15.875 6.29688 18.5938 6.29688C20 6.29688 21.2656 6.85938 22.2031 7.84375C23.2812 7.60938 24.3594 7.1875 25.2969 6.625C24.9219 7.79688 24.1719 8.73438 23.1406 9.34375C24.125 9.25 25.1094 8.96875 25.9531 8.59375C25.2969 9.57812 24.4531 10.4219 23.5156 11.125Z" fill="white"/>
</g>
</g>
<defs>
<filter id="filter0_d_378_3050" x="0" y="-1" width="28" height="36" filterUnits="userSpaceOnUse" color-interpolation-filters="sRGB">
<feFlood flood-opacity="0" result="BackgroundImageFix"/>
<feColorMatrix in="SourceAlpha" type="matrix" values="0 0 0 0 0 0 0 0 0 0 0 0 0 0 0 0 0 0 127 0" result="hardAlpha"/>
<feOffset dy="1"/>
<feGaussianBlur stdDeviation="1"/>
<feColorMatrix type="matrix" values="0 0 0 0 0.0627451 0 0 0 0 0.0941176 0 0 0 0 0.156863 0 0 0 0.05 0"/>
<feBlend mode="normal" in2="BackgroundImageFix" result="effect1_dropShadow_378_3050"/>
<feBlend mode="normal" in="SourceGraphic" in2="effect1_dropShadow_378_3050" result="shape"/>
</filter>
<clipPath id="clip0_378_3050">
<rect x="2" width="24" height="32" rx="12" fill="white"/>
</clipPath>
</defs>
</svg>
